BenchTwelve---0_xx0_93.ufo
<glyph name="quotedbl" format="1">
  <advance width="699"/>
  <unicode hex="0022"/>
  <outline>
    <contour>
      <point x="227" y="681" type="curve" smooth="yes"/>
      <point x="256" y="681" type="line" smooth="yes"/>
      <point x="271" y="681"/>
      <point x="278" y="715"/>
      <point x="281" y="757" type="curve" smooth="yes"/>
      <point x="325" y="1451" type="line" smooth="yes"/>
      <point x="327" y="1494"/>
      <point x="316" y="1529"/>
      <point x="302" y="1529" type="curve" smooth="yes"/>
      <point x="181" y="1529" type="line" smooth="yes"/>
      <point x="166" y="1529"/>
      <point x="153" y="1494"/>
      <point x="156" y="1451" type="curve" smooth="yes"/>
      <point x="201" y="757" type="line" smooth="yes"/>
      <point x="203" y="715"/>
      <point x="212" y="681"/>
    </contour>
    <contour>
      <point x="443" y="681" type="curve" smooth="yes"/>
      <point x="471" y="681" type="line" smooth="yes"/>
      <point x="486" y="681"/>
      <point x="495" y="715"/>
      <point x="497" y="757" type="curve" smooth="yes"/>
      <point x="541" y="1451" type="line" smooth="yes"/>
      <point x="544" y="1494"/>
      <point x="531" y="1529"/>
      <point x="517" y="1529" type="curve" smooth="yes"/>
      <point x="397" y="1529" type="line" smooth="yes"/>
      <point x="382" y="1529"/>
      <point x="370" y="1494"/>
      <point x="372" y="1451" type="curve" smooth="yes"/>
      <point x="416" y="757" type="line" smooth="yes"/>
      <point x="419" y="715"/>
      <point x="428" y="681"/>
    </contour>
  </outline>
</glyph>
<glyph name="percent" format="1">
  <advance width="1130"/>
  <unicode hex="0025"/>
  <outline>
    <contour>
      <point x="412" y="-82" type="curve" smooth="yes"/>
      <point x="466" y="-82" type="line" smooth="yes"/>
      <point x="481" y="-82"/>
      <point x="495" y="-54"/>
      <point x="502" y="-12" type="curve" smooth="yes"/>
      <point x="725" y="1466" type="line" smooth="yes"/>
      <point x="731" y="1499"/>
      <point x="723" y="1536"/>
      <point x="711" y="1536" type="curve" smooth="yes"/>
      <point x="657" y="1536" type="line" smooth="yes"/>
      <point x="641" y="1536"/>
      <point x="626" y="1508"/>
      <point x="620" y="1466" type="curve" smooth="yes"/>
      <point x="396" y="-12" type="line" smooth="yes"/>
      <point x="391" y="-45"/>
      <point x="399" y="-82"/>
    </contour>
    <contour>
      <point x="309" y="731" type="curve" smooth="yes"/>
      <point x="268" y="731"/>
      <point x="249" y="837"/>
      <point x="249" y="1021" type="curve" smooth="yes"/>
      <point x="249" y="1209"/>
      <point x="269" y="1320"/>
      <point x="309" y="1320" type="curve" smooth="yes"/>
      <point x="347" y="1320"/>
      <point x="368" y="1209"/>
      <point x="368" y="1021" type="curve" smooth="yes"/>
      <point x="368" y="837"/>
      <point x="348" y="731"/>
    </contour>
    <contour>
      <point x="309" y="554" type="curve" smooth="yes"/>
      <point x="410" y="554"/>
      <point x="462" y="790"/>
      <point x="462" y="1028" type="curve" smooth="yes"/>
      <point x="462" y="1264"/>
      <point x="412" y="1497"/>
      <point x="309" y="1497" type="curve" smooth="yes"/>
      <point x="205" y="1497"/>
      <point x="155" y="1264"/>
      <point x="155" y="1028" type="curve" smooth="yes"/>
      <point x="155" y="790"/>
      <point x="207" y="554"/>
    </contour>
    <contour>
      <point x="820" y="134" type="curve" smooth="yes"/>
      <point x="781" y="134"/>
      <point x="761" y="239"/>
      <point x="761" y="423" type="curve" smooth="yes"/>
      <point x="761" y="611"/>
      <point x="782" y="722"/>
      <point x="820" y="722" type="curve" smooth="yes"/>
      <point x="859" y="722"/>
      <point x="881" y="611"/>
      <point x="881" y="423" type="curve" smooth="yes"/>
      <point x="881" y="239"/>
      <point x="861" y="134"/>
    </contour>
    <contour>
      <point x="820" y="-44" type="curve" smooth="yes"/>
      <point x="922" y="-44"/>
      <point x="974" y="193"/>
      <point x="974" y="430" type="curve" smooth="yes"/>
      <point x="974" y="666"/>
      <point x="923" y="899"/>
      <point x="820" y="899" type="curve" smooth="yes"/>
      <point x="717" y="899"/>
      <point x="667" y="666"/>
      <point x="667" y="430" type="curve" smooth="yes"/>
      <point x="667" y="193"/>
      <point x="719" y="-44"/>
    </contour>
  </outline>
</glyph>
<glyph name="parenleft" format="1">
  <advance width="577"/>
  <unicode hex="0028"/>
  <outline>
    <contour>
      <point x="392" y="-143" type="curve" smooth="yes"/>
      <point x="405" y="-146"/>
      <point x="418" y="-111"/>
      <point x="418" y="-73" type="curve" smooth="yes"/>
      <point x="418" y="21" type="line" smooth="yes"/>
      <point x="418" y="90"/>
      <point x="413" y="110"/>
      <point x="392" y="140" type="curve" smooth="yes"/>
      <point x="346" y="206"/>
      <point x="323" y="441"/>
      <point x="323" y="698" type="curve" smooth="yes"/>
      <point x="323" y="956"/>
      <point x="347" y="1192"/>
      <point x="392" y="1258" type="curve" smooth="yes"/>
      <point x="413" y="1289"/>
      <point x="418" y="1308"/>
      <point x="418" y="1377" type="curve" smooth="yes"/>
      <point x="418" y="1470" type="line" smooth="yes"/>
      <point x="418" y="1508"/>
      <point x="405" y="1543"/>
      <point x="392" y="1540" type="curve" smooth="yes"/>
      <point x="236" y="1496"/>
      <point x="161" y="1098"/>
      <point x="161" y="698" type="curve" smooth="yes"/>
      <point x="161" y="297"/>
      <point x="236" y="-100"/>
    </contour>
  </outline>
</glyph>
<glyph name="parenright" format="1">
  <advance width="580"/>
  <unicode hex="0029"/>
  <outline>
    <contour>
      <point x="187" y="-143" type="curve" smooth="yes"/>
      <point x="342" y="-100"/>
      <point x="417" y="297"/>
      <point x="417" y="698" type="curve" smooth="yes"/>
      <point x="417" y="1098"/>
      <point x="342" y="1496"/>
      <point x="187" y="1540" type="curve" smooth="yes"/>
      <point x="174" y="1543"/>
      <point x="161" y="1508"/>
      <point x="161" y="1470" type="curve" smooth="yes"/>
      <point x="161" y="1378" type="line" smooth="yes"/>
      <point x="161" y="1309"/>
      <point x="166" y="1289"/>
      <point x="187" y="1258" type="curve" smooth="yes"/>
      <point x="232" y="1192"/>
      <point x="257" y="956"/>
      <point x="257" y="698" type="curve" smooth="yes"/>
      <point x="257" y="441"/>
      <point x="232" y="206"/>
      <point x="186" y="140" type="curve" smooth="yes"/>
      <point x="165" y="110"/>
      <point x="161" y="90"/>
      <point x="161" y="21" type="curve" smooth="yes"/>
      <point x="161" y="-73" type="line" smooth="yes"/>
      <point x="161" y="-111"/>
      <point x="174" y="-146"/>
    </contour>
  </outline>
</glyph>
<glyph name="asterisk" format="1">
  <advance width="669"/>
  <unicode hex="002A"/>
  <outline>
    <contour>
      <point x="245" y="295" type="curve" smooth="yes"/>
      <point x="257" y="295"/>
      <point x="268" y="316"/>
      <point x="273" y="346" type="curve" smooth="yes"/>
      <point x="332" y="695" type="line"/>
      <point x="392" y="346" type="line" smooth="yes"/>
      <point x="397" y="316"/>
      <point x="408" y="295"/>
      <point x="420" y="295" type="curve" smooth="yes"/>
      <point x="437" y="295"/>
      <point x="453" y="339"/>
      <point x="453" y="389" type="curve" smooth="yes"/>
      <point x="453" y="467"/>
      <point x="374" y="685"/>
      <point x="356" y="741" type="curve"/>
      <point x="486" y="824" type="line" smooth="yes"/>
      <point x="500" y="833"/>
      <point x="512" y="869"/>
      <point x="512" y="911" type="curve" smooth="yes"/>
      <point x="512" y="961"/>
      <point x="498" y="1009"/>
      <point x="481" y="1009" type="curve" smooth="yes"/>
      <point x="460" y="1009"/>
      <point x="369" y="853"/>
      <point x="347" y="820" type="curve"/>
      <point x="352" y="946"/>
      <point x="364" y="1095"/>
      <point x="364" y="1221" type="curve" smooth="yes"/>
      <point x="364" y="1271"/>
      <point x="351" y="1309"/>
      <point x="333" y="1309" type="curve" smooth="yes"/>
      <point x="317" y="1309"/>
      <point x="301" y="1276"/>
      <point x="301" y="1226" type="curve" smooth="yes"/>
      <point x="301" y="1098"/>
      <point x="313" y="948"/>
      <point x="319" y="820" type="curve"/>
      <point x="297" y="853"/>
      <point x="205" y="1009"/>
      <point x="184" y="1009" type="curve" smooth="yes"/>
      <point x="166" y="1009"/>
      <point x="154" y="961"/>
      <point x="154" y="911" type="curve" smooth="yes"/>
      <point x="154" y="869"/>
      <point x="165" y="833"/>
      <point x="179" y="824" type="curve" smooth="yes"/>
      <point x="309" y="741" type="line"/>
      <point x="292" y="685"/>
      <point x="213" y="467"/>
      <point x="213" y="389" type="curve" smooth="yes"/>
      <point x="213" y="339"/>
      <point x="229" y="295"/>
    </contour>
  </outline>
</glyph>
<glyph name="plus" format="1">
  <advance width="663"/>
  <unicode hex="002B"/>
  <outline>
    <contour>
      <point x="303" y="20" type="curve" smooth="yes"/>
      <point x="361" y="20" type="line" smooth="yes"/>
      <point x="376" y="20"/>
      <point x="387" y="54"/>
      <point x="387" y="97" type="curve" smooth="yes"/>
      <point x="387" y="360" type="line" smooth="yes"/>
      <point x="387" y="380"/>
      <point x="393" y="397"/>
      <point x="401" y="397" type="curve" smooth="yes"/>
      <point x="483" y="397" type="line" smooth="yes"/>
      <point x="497" y="397"/>
      <point x="508" y="431"/>
      <point x="508" y="474" type="curve" smooth="yes"/>
      <point x="508" y="625" type="line" smooth="yes"/>
      <point x="508" y="668"/>
      <point x="497" y="702"/>
      <point x="483" y="702" type="curve" smooth="yes"/>
      <point x="401" y="702" type="line" smooth="yes"/>
      <point x="393" y="702"/>
      <point x="387" y="719"/>
      <point x="387" y="739" type="curve" smooth="yes"/>
      <point x="387" y="1002" type="line" smooth="yes"/>
      <point x="387" y="1045"/>
      <point x="376" y="1079"/>
      <point x="361" y="1079" type="curve" smooth="yes"/>
      <point x="303" y="1079" type="line" smooth="yes"/>
      <point x="288" y="1079"/>
      <point x="276" y="1045"/>
      <point x="276" y="1002" type="curve" smooth="yes"/>
      <point x="276" y="739" type="line" smooth="yes"/>
      <point x="276" y="719"/>
      <point x="270" y="702"/>
      <point x="264" y="702" type="curve" smooth="yes"/>
      <point x="179" y="702" type="line" smooth="yes"/>
      <point x="165" y="702"/>
      <point x="153" y="668"/>
      <point x="153" y="625" type="curve" smooth="yes"/>
      <point x="153" y="474" type="line" smooth="yes"/>
      <point x="153" y="431"/>
      <point x="165" y="397"/>
      <point x="179" y="397" type="curve" smooth="yes"/>
      <point x="264" y="397" type="line" smooth="yes"/>
      <point x="270" y="397"/>
      <point x="276" y="380"/>
      <point x="276" y="360" type="curve" smooth="yes"/>
      <point x="276" y="97" type="line" smooth="yes"/>
      <point x="276" y="54"/>
      <point x="288" y="20"/>
    </contour>
  </outline>
</glyph>
<glyph name="comma" format="1">
  <advance width="444"/>
  <unicode hex="002C"/>
  <outline>
    <contour>
      <point x="180" y="-339" type="curve" smooth="yes"/>
      <point x="228" y="-316"/>
      <point x="288" y="-207"/>
      <point x="288" y="30" type="curve" smooth="yes"/>
      <point x="288" y="271" type="line" smooth="yes"/>
      <point x="288" y="314"/>
      <point x="276" y="348"/>
      <point x="262" y="348" type="curve" smooth="yes"/>
      <point x="175" y="348" type="line" smooth="yes"/>
      <point x="161" y="348"/>
      <point x="154" y="315"/>
      <point x="154" y="272" type="curve" smooth="yes"/>
      <point x="154" y="69" type="line" smooth="yes"/>
      <point x="154" y="31"/>
      <point x="162" y="0"/>
      <point x="175" y="0" type="curve" smooth="yes"/>
      <point x="201" y="0" type="line" smooth="yes"/>
      <point x="206" y="0"/>
      <point x="207" y="-11"/>
      <point x="207" y="-27" type="curve" smooth="yes"/>
      <point x="207" y="-51"/>
      <point x="202" y="-128"/>
      <point x="179" y="-171" type="curve" smooth="yes"/>
      <point x="164" y="-198"/>
      <point x="154" y="-192"/>
      <point x="154" y="-246" type="curve" smooth="yes"/>
      <point x="154" y="-294" type="line" smooth="yes"/>
      <point x="154" y="-330"/>
      <point x="168" y="-345"/>
    </contour>
  </outline>
</glyph>
<glyph name="hyphen" format="1">
  <advance width="548"/>
  <unicode hex="002D"/>
  <outline>
    <contour>
      <point x="179" y="416" type="curve" smooth="yes"/>
      <point x="367" y="416" type="line" smooth="yes"/>
      <point x="382" y="416"/>
      <point x="393" y="449"/>
      <point x="393" y="492" type="curve" smooth="yes"/>
      <point x="393" y="643" type="line" smooth="yes"/>
      <point x="393" y="686"/>
      <point x="382" y="719"/>
      <point x="367" y="719" type="curve" smooth="yes"/>
      <point x="179" y="719" type="line" smooth="yes"/>
      <point x="164" y="719"/>
      <point x="152" y="686"/>
      <point x="152" y="643" type="curve" smooth="yes"/>
      <point x="152" y="492" type="line" smooth="yes"/>
      <point x="152" y="449"/>
      <point x="164" y="416"/>
    </contour>
  </outline>
</glyph>
<glyph name="slash" format="1">
  <advance width="712"/>
  <unicode hex="002F"/>
  <outline>
    <contour>
      <point x="148" y="-205" type="curve" smooth="yes"/>
      <point x="322" y="-207" type="line" smooth="yes"/>
      <point x="329" y="-207"/>
      <point x="336" y="-193"/>
      <point x="339" y="-172" type="curve" smooth="yes"/>
      <point x="574" y="1612" type="line" smooth="yes"/>
      <point x="577" y="1629"/>
      <point x="572" y="1647"/>
      <point x="565" y="1647" type="curve" smooth="yes"/>
      <point x="393" y="1647" type="line" smooth="yes"/>
      <point x="385" y="1647"/>
      <point x="378" y="1633"/>
      <point x="375" y="1612" type="curve" smooth="yes"/>
      <point x="140" y="-170" type="line" smooth="yes"/>
      <point x="138" y="-187"/>
      <point x="143" y="-205"/>
    </contour>
  </outline>
</glyph>
<glyph name="one" format="1">
  <advance width="693"/>
  <unicode hex="0031"/>
  <outline>
    <contour>
      <point x="289" y="0" type="curve" smooth="yes"/>
      <point x="494" y="0" type="line" smooth="yes"/>
      <point x="509" y="0"/>
      <point x="521" y="33"/>
      <point x="521" y="76" type="curve" smooth="yes"/>
      <point x="521" y="1362" type="line" smooth="yes"/>
      <point x="521" y="1405"/>
      <point x="509" y="1440"/>
      <point x="494" y="1436" type="curve" smooth="yes"/>
      <point x="180" y="1357" type="line" smooth="yes"/>
      <point x="166" y="1354"/>
      <point x="154" y="1322"/>
      <point x="154" y="1279" type="curve" smooth="yes"/>
      <point x="154" y="1064" type="line" smooth="yes"/>
      <point x="154" y="1021"/>
      <point x="165" y="985"/>
      <point x="180" y="989" type="curve" smooth="yes"/>
      <point x="250" y="1006" type="line"/>
      <point x="257" y="1007"/>
      <point x="263" y="990"/>
      <point x="263" y="970" type="curve" smooth="yes"/>
      <point x="263" y="76" type="line" smooth="yes"/>
      <point x="263" y="33"/>
      <point x="275" y="0"/>
    </contour>
  </outline>
</glyph>
<glyph name="three" format="1">
  <advance width="929"/>
  <unicode hex="0033"/>
  <outline>
    <contour>
      <point x="468" y="-41" type="curve" smooth="yes"/>
      <point x="624" y="-41"/>
      <point x="764" y="55"/>
      <point x="764" y="375" type="curve" smooth="yes"/>
      <point x="764" y="575"/>
      <point x="714" y="690"/>
      <point x="649" y="727" type="curve"/>
      <point x="713" y="760"/>
      <point x="757" y="863"/>
      <point x="757" y="1063" type="curve" smooth="yes"/>
      <point x="757" y="1383"/>
      <point x="624" y="1475"/>
      <point x="468" y="1475" type="curve" smooth="yes"/>
      <point x="344" y="1475"/>
      <point x="236" y="1436"/>
      <point x="158" y="1082" type="curve"/>
      <point x="163" y="1043" type="line"/>
      <point x="219" y="1017" type="line"/>
      <point x="233" y="1027"/>
      <point x="234" y="1040"/>
      <point x="237" y="1054" type="curve" smooth="yes"/>
      <point x="284" y="1265"/>
      <point x="369" y="1299"/>
      <point x="468" y="1299" type="curve" smooth="yes"/>
      <point x="600" y="1299"/>
      <point x="678" y="1254"/>
      <point x="678" y="1053" type="curve" smooth="yes"/>
      <point x="678" y="836"/>
      <point x="606" y="815"/>
      <point x="438" y="815" type="curve" smooth="yes"/>
      <point x="431" y="815"/>
      <point x="427" y="808"/>
      <point x="425" y="791" type="curve"/>
      <point x="425" y="790"/>
      <point x="425" y="789"/>
      <point x="425" y="788" type="curve" smooth="yes"/>
      <point x="425" y="787" type="line"/>
      <point x="424" y="780"/>
      <point x="422" y="771"/>
      <point x="422" y="761" type="curve" smooth="yes"/>
      <point x="422" y="694" type="line" smooth="yes"/>
      <point x="422" y="690"/>
      <point x="422" y="687"/>
      <point x="422" y="684" type="curve" smooth="yes"/>
      <point x="422" y="683"/>
      <point x="422" y="683"/>
      <point x="422" y="682" type="curve"/>
      <point x="424" y="681"/>
      <point x="424" y="681"/>
      <point x="424" y="680" type="curve" smooth="yes"/>
      <point x="425" y="651"/>
      <point x="430" y="639"/>
      <point x="438" y="639" type="curve" smooth="yes"/>
      <point x="600" y="639"/>
      <point x="687" y="657"/>
      <point x="687" y="390" type="curve" smooth="yes"/>
      <point x="687" y="209"/>
      <point x="600" y="135"/>
      <point x="468" y="135" type="curve" smooth="yes"/>
      <point x="369" y="135"/>
      <point x="307" y="169"/>
      <point x="244" y="361" type="curve"/>
      <point x="239" y="373"/>
      <point x="238" y="387"/>
      <point x="225" y="397" type="curve"/>
      <point x="170" y="371" type="line"/>
      <point x="164" y="333" type="line"/>
      <point x="249" y="19"/>
      <point x="344" y="-41"/>
    </contour>
  </outline>
</glyph>
<glyph name="six" format="1">
  <advance width="1037"/>
  <unicode hex="0036"/>
  <outline>
    <contour>
      <point x="526" y="-40" type="curve" smooth="yes"/>
      <point x="729" y="-40"/>
      <point x="876" y="56"/>
      <point x="876" y="446" type="curve" smooth="yes"/>
      <point x="876" y="725"/>
      <point x="779" y="931"/>
      <point x="555" y="931" type="curve" smooth="yes"/>
      <point x="510" y="931"/>
      <point x="468" y="907"/>
      <point x="422" y="887" type="curve"/>
      <point x="422" y="906" type="line" smooth="yes"/>
      <point x="421" y="1128"/>
      <point x="469" y="1145"/>
      <point x="559" y="1149" type="curve" smooth="yes"/>
      <point x="669" y="1154"/>
      <point x="778" y="1065"/>
      <point x="793" y="1056" type="curve"/>
      <point x="796" y="1054"/>
      <point x="799" y="1053"/>
      <point x="800" y="1053" type="curve" smooth="yes"/>
      <point x="809" y="1053"/>
      <point x="814" y="1066"/>
      <point x="815" y="1096" type="curve" smooth="yes"/>
      <point x="825" y="1295" type="line" smooth="yes"/>
      <point x="825" y="1300"/>
      <point x="825" y="1304"/>
      <point x="825" y="1308" type="curve" smooth="yes"/>
      <point x="825" y="1337"/>
      <point x="819" y="1354"/>
      <point x="808" y="1364" type="curve" smooth="yes"/>
      <point x="768" y="1398"/>
      <point x="625" y="1476"/>
      <point x="546" y="1476" type="curve" smooth="yes"/>
      <point x="264" y="1476"/>
      <point x="160" y="1221"/>
      <point x="160" y="663" type="curve" smooth="yes"/>
      <point x="160" y="185"/>
      <point x="315" y="-40"/>
    </contour>
    <contour>
      <point x="531" y="260" type="curve" smooth="yes"/>
      <point x="467" y="260"/>
      <point x="421" y="298"/>
      <point x="421" y="508" type="curve" smooth="yes"/>
      <point x="421" y="637" type="line"/>
      <point x="465" y="663"/>
      <point x="505" y="678"/>
      <point x="539" y="678" type="curve" smooth="yes"/>
      <point x="614" y="678"/>
      <point x="633" y="612"/>
      <point x="633" y="465" type="curve" smooth="yes"/>
      <point x="633" y="299"/>
      <point x="594" y="260"/>
    </contour>
  </outline>
</glyph>
<glyph name="colon" format="1">
  <advance width="464"/>
  <unicode hex="003A"/>
  <outline>
    <contour>
      <point x="195" y="0" type="curve" smooth="yes"/>
      <point x="270" y="0" type="line" smooth="yes"/>
      <point x="285" y="0"/>
      <point x="297" y="34"/>
      <point x="297" y="77" type="curve" smooth="yes"/>
      <point x="297" y="269" type="line" smooth="yes"/>
      <point x="297" y="312"/>
      <point x="285" y="346"/>
      <point x="270" y="346" type="curve" smooth="yes"/>
      <point x="195" y="346" type="line" smooth="yes"/>
      <point x="180" y="346"/>
      <point x="168" y="312"/>
      <point x="168" y="269" type="curve" smooth="yes"/>
      <point x="168" y="77" type="line" smooth="yes"/>
      <point x="168" y="34"/>
      <point x="180" y="0"/>
    </contour>
    <contour>
      <point x="195" y="663" type="curve" smooth="yes"/>
      <point x="270" y="663" type="line" smooth="yes"/>
      <point x="285" y="663"/>
      <point x="297" y="697"/>
      <point x="297" y="740" type="curve" smooth="yes"/>
      <point x="297" y="932" type="line" smooth="yes"/>
      <point x="297" y="975"/>
      <point x="285" y="1009"/>
      <point x="270" y="1009" type="curve" smooth="yes"/>
      <point x="195" y="1009" type="line" smooth="yes"/>
      <point x="180" y="1009"/>
      <point x="168" y="975"/>
      <point x="168" y="932" type="curve" smooth="yes"/>
      <point x="168" y="740" type="line" smooth="yes"/>
      <point x="168" y="697"/>
      <point x="180" y="663"/>
    </contour>
  </outline>
</glyph>
<glyph name="semicolon" format="1">
  <advance width="471"/>
  <unicode hex="003B"/>
  <outline>
    <contour>
      <point x="194" y="-339" type="curve" smooth="yes"/>
      <point x="242" y="-316"/>
      <point x="303" y="-207"/>
      <point x="303" y="30" type="curve" smooth="yes"/>
      <point x="303" y="271" type="line" smooth="yes"/>
      <point x="303" y="314"/>
      <point x="291" y="348"/>
      <point x="277" y="348" type="curve" smooth="yes"/>
      <point x="190" y="348" type="line" smooth="yes"/>
      <point x="175" y="348"/>
      <point x="169" y="315"/>
      <point x="169" y="272" type="curve" smooth="yes"/>
      <point x="169" y="69" type="line" smooth="yes"/>
      <point x="169" y="31"/>
      <point x="176" y="0"/>
      <point x="190" y="0" type="curve" smooth="yes"/>
      <point x="216" y="0" type="line" smooth="yes"/>
      <point x="221" y="0"/>
      <point x="222" y="-11"/>
      <point x="222" y="-27" type="curve" smooth="yes"/>
      <point x="222" y="-51"/>
      <point x="216" y="-128"/>
      <point x="193" y="-171" type="curve" smooth="yes"/>
      <point x="178" y="-198"/>
      <point x="169" y="-192"/>
      <point x="169" y="-246" type="curve" smooth="yes"/>
      <point x="169" y="-294" type="line" smooth="yes"/>
      <point x="169" y="-330"/>
      <point x="182" y="-345"/>
    </contour>
    <contour>
      <point x="195" y="663" type="curve" smooth="yes"/>
      <point x="270" y="663" type="line" smooth="yes"/>
      <point x="285" y="663"/>
      <point x="297" y="697"/>
      <point x="297" y="740" type="curve" smooth="yes"/>
      <point x="297" y="932" type="line" smooth="yes"/>
      <point x="297" y="975"/>
      <point x="285" y="1009"/>
      <point x="270" y="1009" type="curve" smooth="yes"/>
      <point x="195" y="1009" type="line" smooth="yes"/>
      <point x="180" y="1009"/>
      <point x="168" y="975"/>
      <point x="168" y="932" type="curve" smooth="yes"/>
      <point x="168" y="740" type="line" smooth="yes"/>
      <point x="168" y="697"/>
      <point x="180" y="663"/>
    </contour>
  </outline>
</glyph>
<glyph name="equal" format="1">
  <advance width="584"/>
  <unicode hex="003D"/>
  <outline>
    <contour>
      <point x="189" y="220" type="curve" smooth="yes"/>
      <point x="396" y="220" type="line" smooth="yes"/>
      <point x="410" y="220"/>
      <point x="422" y="253"/>
      <point x="422" y="296" type="curve" smooth="yes"/>
      <point x="422" y="393" type="line" smooth="yes"/>
      <point x="422" y="436"/>
      <point x="410" y="468"/>
      <point x="396" y="468" type="curve" smooth="yes"/>
      <point x="189" y="468" type="line" smooth="yes"/>
      <point x="174" y="468"/>
      <point x="162" y="436"/>
      <point x="162" y="393" type="curve" smooth="yes"/>
      <point x="162" y="296" type="line" smooth="yes"/>
      <point x="162" y="253"/>
      <point x="174" y="220"/>
    </contour>
    <contour>
      <point x="189" y="622" type="curve" smooth="yes"/>
      <point x="396" y="622" type="line" smooth="yes"/>
      <point x="410" y="622"/>
      <point x="422" y="654"/>
      <point x="422" y="697" type="curve" smooth="yes"/>
      <point x="422" y="794" type="line" smooth="yes"/>
      <point x="422" y="837"/>
      <point x="410" y="870"/>
      <point x="396" y="870" type="curve" smooth="yes"/>
      <point x="189" y="870" type="line" smooth="yes"/>
      <point x="174" y="870"/>
      <point x="162" y="837"/>
      <point x="162" y="794" type="curve" smooth="yes"/>
      <point x="162" y="697" type="line" smooth="yes"/>
      <point x="162" y="654"/>
      <point x="174" y="622"/>
    </contour>
  </outline>
</glyph>
<glyph name="B" format="1">
  <advance width="1058"/>
  <unicode hex="0042"/>
  <outline>
    <contour>
      <point x="199" y="0" type="curve" smooth="yes"/>
      <point x="575" y="0" type="line" smooth="yes"/>
      <point x="751" y="0"/>
      <point x="895" y="96"/>
      <point x="895" y="424" type="curve" smooth="yes"/>
      <point x="895" y="590"/>
      <point x="864" y="706"/>
      <point x="798" y="757" type="curve" smooth="yes"/>
      <point x="793" y="761"/>
      <point x="790" y="766"/>
      <point x="790" y="772" type="curve" smooth="yes"/>
      <point x="790" y="776"/>
      <point x="793" y="782"/>
      <point x="797" y="787" type="curve" smooth="yes"/>
      <point x="844" y="841"/>
      <point x="860" y="929"/>
      <point x="860" y="1040" type="curve" smooth="yes"/>
      <point x="860" y="1339"/>
      <point x="740" y="1437"/>
      <point x="592" y="1437" type="curve" smooth="yes"/>
      <point x="199" y="1437" type="line" smooth="yes"/>
      <point x="184" y="1437"/>
      <point x="172" y="1432"/>
      <point x="172" y="1390" type="curve" smooth="yes"/>
      <point x="172" y="47" type="line" smooth="yes"/>
      <point x="172" y="5"/>
      <point x="184" y="0"/>
    </contour>
    <contour>
      <point x="517" y="344" type="curve" smooth="yes"/>
      <point x="429" y="344" type="line" smooth="yes"/>
      <point x="422" y="344"/>
      <point x="416" y="346"/>
      <point x="416" y="365" type="curve" smooth="yes"/>
      <point x="416" y="623" type="line" smooth="yes"/>
      <point x="416" y="643"/>
      <point x="422" y="650"/>
      <point x="429" y="650" type="curve" smooth="yes"/>
      <point x="536" y="650" type="line" smooth="yes"/>
      <point x="611" y="650"/>
      <point x="644" y="630"/>
      <point x="644" y="504" type="curve" smooth="yes"/>
      <point x="644" y="362"/>
      <point x="589" y="344"/>
    </contour>
    <contour>
      <point x="542" y="861" type="curve" smooth="yes"/>
      <point x="429" y="861" type="line" smooth="yes"/>
      <point x="422" y="861"/>
      <point x="416" y="864"/>
      <point x="416" y="883" type="curve" smooth="yes"/>
      <point x="416" y="1119" type="line" smooth="yes"/>
      <point x="416" y="1139"/>
      <point x="422" y="1142"/>
      <point x="429" y="1142" type="curve" smooth="yes"/>
      <point x="514" y="1142" type="line" smooth="yes"/>
      <point x="576" y="1142"/>
      <point x="627" y="1135"/>
      <point x="627" y="993" type="curve" smooth="yes"/>
      <point x="627" y="888"/>
      <point x="600" y="861"/>
    </contour>
  </outline>
</glyph>
<glyph name="D" format="1">
  <advance width="1092"/>
  <unicode hex="0044"/>
  <outline>
    <contour>
      <point x="445" y="206" type="curve" smooth="yes"/>
      <point x="438" y="206"/>
      <point x="416" y="210"/>
      <point x="416" y="228" type="curve" smooth="yes"/>
      <point x="416" y="418"/>
      <point x="416" y="929"/>
      <point x="416" y="1120" type="curve" smooth="yes"/>
      <point x="416" y="1138"/>
      <point x="421" y="1235"/>
      <point x="428" y="1235" type="curve" smooth="yes"/>
      <point x="448" y="1235"/>
      <point x="485" y="1236"/>
      <point x="505" y="1236" type="curve" smooth="yes"/>
      <point x="567" y="1236"/>
      <point x="647" y="1178"/>
      <point x="647" y="774" type="curve" smooth="yes"/>
      <point x="662" y="365"/>
      <point x="615" y="281"/>
      <point x="531" y="250" type="curve" smooth="yes"/>
      <point x="510" y="214"/>
      <point x="484" y="205"/>
    </contour>
    <contour>
      <point x="199" y="0" type="curve" smooth="yes"/>
      <point x="495" y="0"/>
      <point x="527" y="0"/>
      <point x="537" y="0" type="curve" smooth="yes"/>
      <point x="777" y="0"/>
      <point x="928" y="24"/>
      <point x="928" y="732" type="curve" smooth="yes"/>
      <point x="928" y="1264"/>
      <point x="792" y="1437"/>
      <point x="575" y="1437" type="curve" smooth="yes"/>
      <point x="199" y="1437" type="line" smooth="yes"/>
      <point x="184" y="1437"/>
      <point x="172" y="1433"/>
      <point x="172" y="1391" type="curve" smooth="yes"/>
      <point x="172" y="46" type="line" smooth="yes"/>
      <point x="172" y="4"/>
      <point x="184" y="0"/>
    </contour>
  </outline>
</glyph>
<glyph name="E" format="1">
  <advance width="994"/>
  <unicode hex="0045"/>
  <outline>
    <contour>
      <point x="199" y="0" type="curve" smooth="yes"/>
      <point x="801" y="0" type="line" smooth="yes"/>
      <point x="816" y="0"/>
      <point x="828" y="4"/>
      <point x="828" y="46" type="curve" smooth="yes"/>
      <point x="828" y="192" type="line" smooth="yes"/>
      <point x="828" y="234"/>
      <point x="816" y="238"/>
      <point x="801" y="238" type="curve" smooth="yes"/>
      <point x="429" y="238" type="line"/>
      <point x="429" y="535" type="line" smooth="yes"/>
      <point x="429" y="554"/>
      <point x="435" y="571"/>
      <point x="442" y="571" type="curve" smooth="yes"/>
      <point x="689" y="571" type="line" smooth="yes"/>
      <point x="704" y="571"/>
      <point x="715" y="584"/>
      <point x="715" y="626" type="curve" smooth="yes"/>
      <point x="715" y="765" type="line" smooth="yes"/>
      <point x="715" y="807"/>
      <point x="704" y="820"/>
      <point x="689" y="820" type="curve" smooth="yes"/>
      <point x="442" y="820" type="line" smooth="yes"/>
      <point x="435" y="820"/>
      <point x="429" y="836"/>
      <point x="429" y="855" type="curve" smooth="yes"/>
      <point x="429" y="1097" type="line" smooth="yes"/>
      <point x="429" y="1117"/>
      <point x="435" y="1133"/>
      <point x="442" y="1133" type="curve" smooth="yes"/>
      <point x="801" y="1133" type="line" smooth="yes"/>
      <point x="816" y="1133"/>
      <point x="828" y="1137"/>
      <point x="828" y="1179" type="curve" smooth="yes"/>
      <point x="828" y="1392" type="line" smooth="yes"/>
      <point x="828" y="1434"/>
      <point x="816" y="1438"/>
      <point x="801" y="1438" type="curve" smooth="yes"/>
      <point x="199" y="1438" type="line" smooth="yes"/>
      <point x="184" y="1438"/>
      <point x="172" y="1434"/>
      <point x="172" y="1392" type="curve" smooth="yes"/>
      <point x="172" y="46" type="line" smooth="yes"/>
      <point x="172" y="4"/>
      <point x="184" y="0"/>
    </contour>
  </outline>
</glyph>
<glyph name="F" format="1">
  <advance width="978"/>
  <unicode hex="0046"/>
  <outline>
    <contour>
      <point x="199" y="0" type="curve" smooth="yes"/>
      <point x="404" y="0" type="line" smooth="yes"/>
      <point x="418" y="0"/>
      <point x="429" y="4"/>
      <point x="429" y="46" type="curve" smooth="yes"/>
      <point x="429" y="509" type="line" smooth="yes"/>
      <point x="429" y="528"/>
      <point x="435" y="545"/>
      <point x="442" y="545" type="curve" smooth="yes"/>
      <point x="689" y="545" type="line" smooth="yes"/>
      <point x="704" y="545"/>
      <point x="715" y="558"/>
      <point x="715" y="600" type="curve" smooth="yes"/>
      <point x="715" y="739" type="line" smooth="yes"/>
      <point x="715" y="781"/>
      <point x="704" y="794"/>
      <point x="689" y="794" type="curve" smooth="yes"/>
      <point x="442" y="794" type="line" smooth="yes"/>
      <point x="435" y="794"/>
      <point x="429" y="810"/>
      <point x="429" y="829" type="curve" smooth="yes"/>
      <point x="429" y="1097" type="line" smooth="yes"/>
      <point x="429" y="1117"/>
      <point x="435" y="1133"/>
      <point x="442" y="1133" type="curve" smooth="yes"/>
      <point x="801" y="1133" type="line" smooth="yes"/>
      <point x="816" y="1133"/>
      <point x="828" y="1137"/>
      <point x="828" y="1179" type="curve" smooth="yes"/>
      <point x="828" y="1392" type="line" smooth="yes"/>
      <point x="828" y="1434"/>
      <point x="816" y="1438"/>
      <point x="801" y="1438" type="curve" smooth="yes"/>
      <point x="199" y="1438" type="line" smooth="yes"/>
      <point x="184" y="1438"/>
      <point x="172" y="1434"/>
      <point x="172" y="1392" type="curve" smooth="yes"/>
      <point x="172" y="46" type="line" smooth="yes"/>
      <point x="172" y="4"/>
      <point x="184" y="0"/>
    </contour>
  </outline>
</glyph>
<glyph name="G" format="1">
  <advance width="1087"/>
  <unicode hex="0047"/>
  <outline>
    <contour>
      <point x="540" y="-41" type="curve" smooth="yes"/>
      <point x="601" y="-41"/>
      <point x="751" y="-16"/>
      <point x="810" y="275" type="curve"/>
      <point x="812" y="282"/>
      <point x="814" y="285"/>
      <point x="816" y="285" type="curve" smooth="yes"/>
      <point x="818" y="285"/>
      <point x="821" y="280"/>
      <point x="821" y="272" type="curve"/>
      <point x="821" y="269"/>
      <point x="850" y="72"/>
      <point x="850" y="70" type="curve" smooth="yes"/>
      <point x="859" y="12"/>
      <point x="875" y="0"/>
      <point x="890" y="0" type="curve" smooth="yes"/>
      <point x="905" y="0"/>
      <point x="916" y="34"/>
      <point x="916" y="77" type="curve" smooth="yes"/>
      <point x="916" y="702" type="line" smooth="yes"/>
      <point x="916" y="745"/>
      <point x="904" y="779"/>
      <point x="890" y="779" type="curve" smooth="yes"/>
      <point x="620" y="779" type="line" smooth="yes"/>
      <point x="605" y="779"/>
      <point x="593" y="745"/>
      <point x="593" y="702" type="curve" smooth="yes"/>
      <point x="593" y="627" type="line" smooth="yes"/>
      <point x="593" y="584"/>
      <point x="605" y="551"/>
      <point x="620" y="551" type="curve" smooth="yes"/>
      <point x="695" y="551" type="line" smooth="yes"/>
      <point x="700" y="551"/>
      <point x="704" y="537"/>
      <point x="704" y="524" type="curve" smooth="yes"/>
      <point x="704" y="504"/>
      <point x="684" y="336"/>
      <point x="567" y="336" type="curve" smooth="yes"/>
      <point x="480" y="336"/>
      <point x="426" y="449"/>
      <point x="426" y="719" type="curve" smooth="yes"/>
      <point x="426" y="998"/>
      <point x="483" y="1104"/>
      <point x="571" y="1106" type="curve" smooth="yes"/>
      <point x="643" y="1106"/>
      <point x="682" y="1049"/>
      <point x="702" y="971" type="curve" smooth="yes"/>
      <point x="713" y="928"/>
      <point x="723" y="910"/>
      <point x="740" y="910" type="curve" smooth="yes"/>
      <point x="742" y="910"/>
      <point x="748" y="911"/>
      <point x="913" y="945" type="curve"/>
      <point x="914" y="946"/>
      <point x="917" y="951"/>
      <point x="917" y="957" type="curve" smooth="yes"/>
      <point x="917" y="966"/>
      <point x="911" y="976"/>
      <point x="911" y="985" type="curve" smooth="yes"/>
      <point x="907" y="1369"/>
      <point x="723" y="1475"/>
      <point x="571" y="1475" type="curve" smooth="yes"/>
      <point x="369" y="1475"/>
      <point x="160" y="1328"/>
      <point x="160" y="719" type="curve" smooth="yes"/>
      <point x="160" y="156"/>
      <point x="345" y="-41"/>
    </contour>
  </outline>
</glyph>
<glyph name="H" format="1">
  <advance width="1064"/>
  <unicode hex="0048"/>
  <outline>
    <contour>
      <point x="199" y="0" type="curve" smooth="yes"/>
      <point x="383" y="0" type="line" smooth="yes"/>
      <point x="398" y="0"/>
      <point x="409" y="4"/>
      <point x="409" y="47" type="curve" smooth="yes"/>
      <point x="409" y="648" type="line" smooth="yes"/>
      <point x="409" y="667"/>
      <point x="415" y="671"/>
      <point x="422" y="671" type="curve" smooth="yes"/>
      <point x="639" y="671" type="line" smooth="yes"/>
      <point x="645" y="671"/>
      <point x="651" y="667"/>
      <point x="651" y="648" type="curve" smooth="yes"/>
      <point x="651" y="47" type="line" smooth="yes"/>
      <point x="651" y="4"/>
      <point x="663" y="0"/>
      <point x="678" y="0" type="curve" smooth="yes"/>
      <point x="866" y="0" type="line" smooth="yes"/>
      <point x="881" y="0"/>
      <point x="892" y="4"/>
      <point x="892" y="47" type="curve" smooth="yes"/>
      <point x="892" y="1391" type="line" smooth="yes"/>
      <point x="892" y="1434"/>
      <point x="881" y="1438"/>
      <point x="866" y="1438" type="curve" smooth="yes"/>
      <point x="678" y="1438" type="line" smooth="yes"/>
      <point x="663" y="1438"/>
      <point x="652" y="1434"/>
      <point x="652" y="1391" type="curve" smooth="yes"/>
      <point x="652" y="893" type="line" smooth="yes"/>
      <point x="652" y="874"/>
      <point x="646" y="866"/>
      <point x="639" y="866" type="curve" smooth="yes"/>
      <point x="420" y="866" type="line" smooth="yes"/>
      <point x="413" y="866"/>
      <point x="407" y="874"/>
      <point x="407" y="893" type="curve" smooth="yes"/>
      <point x="407" y="1391" type="line" smooth="yes"/>
      <point x="407" y="1434"/>
      <point x="396" y="1438"/>
      <point x="381" y="1438" type="curve" smooth="yes"/>
      <point x="199" y="1438" type="line" smooth="yes"/>
      <point x="184" y="1438"/>
      <point x="172" y="1434"/>
      <point x="172" y="1391" type="curve" smooth="yes"/>
      <point x="172" y="47" type="line" smooth="yes"/>
      <point x="172" y="4"/>
      <point x="184" y="0"/>
    </contour>
  </outline>
</glyph>
<glyph name="I" format="1">
  <advance width="593"/>
  <unicode hex="0049"/>
  <outline>
    <contour>
      <point x="199" y="0" type="curve" smooth="yes"/>
      <point x="395" y="0" type="line" smooth="yes"/>
      <point x="409" y="0"/>
      <point x="421" y="4"/>
      <point x="421" y="47" type="curve" smooth="yes"/>
      <point x="421" y="1391" type="line" smooth="yes"/>
      <point x="421" y="1434"/>
      <point x="409" y="1438"/>
      <point x="395" y="1438" type="curve" smooth="yes"/>
      <point x="199" y="1438" type="line" smooth="yes"/>
      <point x="184" y="1438"/>
      <point x="172" y="1434"/>
      <point x="172" y="1391" type="curve" smooth="yes"/>
      <point x="172" y="47" type="line" smooth="yes"/>
      <point x="172" y="4"/>
      <point x="184" y="0"/>
    </contour>
  </outline>
</glyph>
<glyph name="L" format="1">
  <advance width="873"/>
  <unicode hex="004C"/>
  <outline>
    <contour>
      <point x="199" y="0" type="curve" smooth="yes"/>
      <point x="700" y="0" type="line" smooth="yes"/>
      <point x="715" y="0"/>
      <point x="727" y="4"/>
      <point x="727" y="46" type="curve" smooth="yes"/>
      <point x="727" y="159" type="line" smooth="yes"/>
      <point x="727" y="200"/>
      <point x="715" y="204"/>
      <point x="700" y="204" type="curve" smooth="yes"/>
      <point x="443" y="204" type="line" smooth="yes"/>
      <point x="435" y="204"/>
      <point x="429" y="208"/>
      <point x="429" y="228" type="curve" smooth="yes"/>
      <point x="429" y="1391" type="line" smooth="yes"/>
      <point x="429" y="1434"/>
      <point x="418" y="1438"/>
      <point x="404" y="1438" type="curve" smooth="yes"/>
      <point x="199" y="1438" type="line" smooth="yes"/>
      <point x="184" y="1438"/>
      <point x="172" y="1434"/>
      <point x="172" y="1391" type="curve" smooth="yes"/>
      <point x="172" y="47" type="line" smooth="yes"/>
      <point x="172" y="4"/>
      <point x="184" y="0"/>
    </contour>
  </outline>
</glyph>
<glyph name="N" format="1">
  <advance width="1121"/>
  <unicode hex="004E"/>
  <outline>
    <contour>
      <point x="199" y="0" type="curve" smooth="yes"/>
      <point x="363" y="0" type="line" smooth="yes"/>
      <point x="377" y="0"/>
      <point x="389" y="4"/>
      <point x="389" y="47" type="curve" smooth="yes"/>
      <point x="389" y="824" type="line" smooth="yes"/>
      <point x="389" y="838"/>
      <point x="394" y="846"/>
      <point x="398" y="837" type="curve" smooth="yes"/>
      <point x="687" y="38" type="line" smooth="yes"/>
      <point x="698" y="8"/>
      <point x="716" y="-1"/>
      <point x="730" y="-1" type="curve" smooth="yes"/>
      <point x="923" y="-1" type="line" smooth="yes"/>
      <point x="937" y="-1"/>
      <point x="949" y="2"/>
      <point x="949" y="45" type="curve" smooth="yes"/>
      <point x="949" y="1382" type="line" smooth="yes"/>
      <point x="949" y="1425"/>
      <point x="937" y="1438"/>
      <point x="923" y="1438" type="curve" smooth="yes"/>
      <point x="763" y="1438" type="line" smooth="yes"/>
      <point x="749" y="1438"/>
      <point x="736" y="1425"/>
      <point x="736" y="1382" type="curve" smooth="yes"/>
      <point x="736" y="800" type="line" smooth="yes"/>
      <point x="736" y="786"/>
      <point x="730" y="779"/>
      <point x="728" y="787" type="curve" smooth="yes"/>
      <point x="499" y="1390" type="line" smooth="yes"/>
      <point x="488" y="1420"/>
      <point x="471" y="1439"/>
      <point x="456" y="1439" type="curve" smooth="yes"/>
      <point x="199" y="1439" type="line" smooth="yes"/>
      <point x="184" y="1439"/>
      <point x="172" y="1426"/>
      <point x="172" y="1383" type="curve" smooth="yes"/>
      <point x="172" y="47" type="line" smooth="yes"/>
      <point x="172" y="4"/>
      <point x="184" y="0"/>
    </contour>
  </outline>
</glyph>
<glyph name="O" format="1">
  <advance width="1164"/>
  <unicode hex="004F"/>
  <outline>
    <contour>
      <point x="580" y="203" type="curve" smooth="yes"/>
      <point x="470" y="203"/>
      <point x="441" y="323"/>
      <point x="441" y="721" type="curve" smooth="yes"/>
      <point x="441" y="1114"/>
      <point x="468" y="1237"/>
      <point x="582" y="1237" type="curve" smooth="yes"/>
      <point x="697" y="1237"/>
      <point x="721" y="1115"/>
      <point x="721" y="721" type="curve" smooth="yes"/>
      <point x="721" y="323"/>
      <point x="691" y="203"/>
    </contour>
    <contour>
      <point x="581" y="-40" type="curve" smooth="yes"/>
      <point x="840" y="-40"/>
      <point x="1000" y="74"/>
      <point x="1000" y="721" type="curve" smooth="yes"/>
      <point x="1000" y="1349"/>
      <point x="840" y="1474"/>
      <point x="581" y="1474" type="curve" smooth="yes"/>
      <point x="323" y="1474"/>
      <point x="162" y="1349"/>
      <point x="162" y="721" type="curve" smooth="yes"/>
      <point x="162" y="74"/>
      <point x="323" y="-40"/>
    </contour>
  </outline>
</glyph>
<glyph name="P" format="1">
  <advance width="1060"/>
  <unicode hex="0050"/>
  <outline>
    <contour>
      <point x="199" y="0" type="curve" smooth="yes"/>
      <point x="389" y="0" type="line" smooth="yes"/>
      <point x="404" y="0"/>
      <point x="416" y="33"/>
      <point x="416" y="76" type="curve" smooth="yes"/>
      <point x="416" y="416" type="line" smooth="yes"/>
      <point x="416" y="435"/>
      <point x="422" y="453"/>
      <point x="427" y="453" type="curve" smooth="yes"/>
      <point x="480" y="453"/>
      <point x="548" y="452"/>
      <point x="597" y="454" type="curve" smooth="yes"/>
      <point x="766" y="460"/>
      <point x="898" y="512"/>
      <point x="898" y="932" type="curve" smooth="yes"/>
      <point x="898" y="1375"/>
      <point x="776" y="1438"/>
      <point x="592" y="1438" type="curve" smooth="yes"/>
      <point x="468" y="1438"/>
      <point x="323" y="1436"/>
      <point x="199" y="1436" type="curve" smooth="yes"/>
      <point x="184" y="1436"/>
      <point x="172" y="1402"/>
      <point x="172" y="1360" type="curve" smooth="yes"/>
      <point x="172" y="76" type="line" smooth="yes"/>
      <point x="172" y="33"/>
      <point x="184" y="0"/>
    </contour>
    <contour>
      <point x="573" y="752" type="curve" smooth="yes"/>
      <point x="427" y="752" type="line" smooth="yes"/>
      <point x="421" y="752"/>
      <point x="416" y="769"/>
      <point x="416" y="788" type="curve" smooth="yes"/>
      <point x="416" y="1037" type="line" smooth="yes"/>
      <point x="416" y="1055"/>
      <point x="422" y="1072"/>
      <point x="427" y="1072" type="curve" smooth="yes"/>
      <point x="533" y="1072" type="line" smooth="yes"/>
      <point x="578" y="1072"/>
      <point x="649" y="1102"/>
      <point x="649" y="915" type="curve" smooth="yes"/>
      <point x="649" y="776"/>
      <point x="614" y="752"/>
    </contour>
  </outline>
</glyph>
<glyph name="S" format="1">
  <advance width="1084"/>
  <unicode hex="0053"/>
  <outline>
    <contour>
      <point x="533" y="-41" type="curve" smooth="yes"/>
      <point x="821" y="-41"/>
      <point x="923" y="103"/>
      <point x="923" y="458" type="curve" smooth="yes"/>
      <point x="923" y="863"/>
      <point x="743" y="902"/>
      <point x="601" y="927" type="curve" smooth="yes"/>
      <point x="465" y="949"/>
      <point x="426" y="961"/>
      <point x="426" y="1033" type="curve" smooth="yes"/>
      <point x="426" y="1105"/>
      <point x="481" y="1107"/>
      <point x="532" y="1107" type="curve" smooth="yes"/>
      <point x="584" y="1107"/>
      <point x="704" y="1091"/>
      <point x="799" y="999" type="curve" smooth="yes"/>
      <point x="815" y="986"/>
      <point x="829" y="1007"/>
      <point x="836" y="1044" type="curve" smooth="yes"/>
      <point x="836" y="1045"/>
      <point x="869" y="1234"/>
      <point x="869" y="1235" type="curve" smooth="yes"/>
      <point x="874" y="1270"/>
      <point x="867" y="1315"/>
      <point x="855" y="1329" type="curve" smooth="yes"/>
      <point x="764" y="1431"/>
      <point x="653" y="1475"/>
      <point x="516" y="1475" type="curve" smooth="yes"/>
      <point x="344" y="1475"/>
      <point x="168" y="1429"/>
      <point x="168" y="983" type="curve" smooth="yes"/>
      <point x="168" y="531"/>
      <point x="394" y="534"/>
      <point x="594" y="500" type="curve" smooth="yes"/>
      <point x="627" y="496"/>
      <point x="655" y="478"/>
      <point x="655" y="411" type="curve" smooth="yes"/>
      <point x="655" y="351"/>
      <point x="622" y="333"/>
      <point x="578" y="333" type="curve" smooth="yes"/>
      <point x="447" y="333"/>
      <point x="346" y="370"/>
      <point x="241" y="461" type="curve" smooth="yes"/>
      <point x="226" y="473"/>
      <point x="211" y="453"/>
      <point x="204" y="414" type="curve" smooth="yes"/>
      <point x="204" y="414"/>
      <point x="170" y="200"/>
      <point x="170" y="199" type="curve" smooth="yes"/>
      <point x="165" y="164"/>
      <point x="171" y="119"/>
      <point x="184" y="106" type="curve" smooth="yes"/>
      <point x="296" y="-11"/>
      <point x="416" y="-41"/>
    </contour>
  </outline>
</glyph>
<glyph name="T" format="1">
  <advance width="941"/>
  <unicode hex="0054"/>
  <outline>
    <contour>
      <point x="378" y="0" type="curve" smooth="yes"/>
      <point x="562" y="0" type="line" smooth="yes"/>
      <point x="577" y="0"/>
      <point x="589" y="5"/>
      <point x="589" y="48" type="curve" smooth="yes"/>
      <point x="589" y="1177" type="line" smooth="yes"/>
      <point x="589" y="1197"/>
      <point x="594" y="1202"/>
      <point x="601" y="1202" type="curve" smooth="yes"/>
      <point x="776" y="1202" type="line" smooth="yes"/>
      <point x="790" y="1202"/>
      <point x="802" y="1204"/>
      <point x="802" y="1245" type="curve" smooth="yes"/>
      <point x="802" y="1389" type="line" smooth="yes"/>
      <point x="802" y="1431"/>
      <point x="790" y="1438"/>
      <point x="776" y="1438" type="curve" smooth="yes"/>
      <point x="164" y="1438" type="line" smooth="yes"/>
      <point x="148" y="1438"/>
      <point x="137" y="1431"/>
      <point x="137" y="1389" type="curve" smooth="yes"/>
      <point x="137" y="1245" type="line" smooth="yes"/>
      <point x="137" y="1204"/>
      <point x="148" y="1202"/>
      <point x="164" y="1202" type="curve" smooth="yes"/>
      <point x="339" y="1202" type="line" smooth="yes"/>
      <point x="346" y="1202"/>
      <point x="352" y="1197"/>
      <point x="352" y="1177" type="curve" smooth="yes"/>
      <point x="352" y="48" type="line" smooth="yes"/>
      <point x="352" y="5"/>
      <point x="363" y="0"/>
    </contour>
  </outline>
</glyph>
<glyph name="V" format="1">
  <advance width="1051"/>
  <unicode hex="0056"/>
  <outline>
    <contour>
      <point x="431" y="0" type="curve" smooth="yes"/>
      <point x="625" y="0" type="line" smooth="yes"/>
      <point x="642" y="0"/>
      <point x="657" y="27"/>
      <point x="664" y="67" type="curve" smooth="yes"/>
      <point x="905" y="1371" type="line" smooth="yes"/>
      <point x="911" y="1402"/>
      <point x="904" y="1438"/>
      <point x="892" y="1438" type="curve" smooth="yes"/>
      <point x="722" y="1438" type="line" smooth="yes"/>
      <point x="705" y="1438"/>
      <point x="690" y="1411"/>
      <point x="683" y="1371" type="curve" smooth="yes"/>
      <point x="538" y="584" type="line"/>
      <point x="393" y="1371" type="line" smooth="yes"/>
      <point x="386" y="1411"/>
      <point x="371" y="1438"/>
      <point x="354" y="1438" type="curve" smooth="yes"/>
      <point x="159" y="1438" type="line" smooth="yes"/>
      <point x="147" y="1438"/>
      <point x="139" y="1402"/>
      <point x="144" y="1371" type="curve" smooth="yes"/>
      <point x="392" y="67" type="line" smooth="yes"/>
      <point x="399" y="27"/>
      <point x="414" y="0"/>
    </contour>
  </outline>
</glyph>
<glyph name="X" format="1">
  <advance width="1067"/>
  <unicode hex="0058"/>
  <outline>
    <contour>
      <point x="167" y="0" type="curve" smooth="yes"/>
      <point x="325" y="0" type="line" smooth="yes"/>
      <point x="341" y="0"/>
      <point x="358" y="20"/>
      <point x="370" y="52" type="curve" smooth="yes"/>
      <point x="498" y="384" type="line"/>
      <point x="610" y="56" type="line" smooth="yes"/>
      <point x="621" y="21"/>
      <point x="638" y="0"/>
      <point x="655" y="0" type="curve" smooth="yes"/>
      <point x="904" y="0" type="line" smooth="yes"/>
      <point x="911" y="0"/>
      <point x="915" y="15"/>
      <point x="915" y="32" type="curve" smooth="yes"/>
      <point x="915" y="39"/>
      <point x="913" y="48"/>
      <point x="911" y="56" type="curve" smooth="yes"/>
      <point x="663" y="813" type="line"/>
      <point x="883" y="1386" type="line"/>
      <point x="886" y="1393"/>
      <point x="887" y="1401"/>
      <point x="887" y="1409" type="curve" smooth="yes"/>
      <point x="887" y="1424"/>
      <point x="883" y="1438"/>
      <point x="877" y="1438" type="curve" smooth="yes"/>
      <point x="717" y="1438" type="line" smooth="yes"/>
      <point x="701" y="1438"/>
      <point x="683" y="1418"/>
      <point x="671" y="1386" type="curve" smooth="yes"/>
      <point x="566" y="1109" type="line"/>
      <point x="476" y="1382" type="line" smooth="yes"/>
      <point x="465" y="1416"/>
      <point x="448" y="1438"/>
      <point x="432" y="1438" type="curve" smooth="yes"/>
      <point x="169" y="1438" type="line" smooth="yes"/>
      <point x="163" y="1438"/>
      <point x="158" y="1423"/>
      <point x="158" y="1407" type="curve" smooth="yes"/>
      <point x="158" y="1399"/>
      <point x="160" y="1390"/>
      <point x="162" y="1382" type="curve"/>
      <point x="400" y="676" type="line"/>
      <point x="161" y="52" type="line"/>
      <point x="158" y="45"/>
      <point x="157" y="37"/>
      <point x="157" y="29" type="curve" smooth="yes"/>
      <point x="157" y="14"/>
      <point x="161" y="0"/>
    </contour>
  </outline>
</glyph>
<glyph name="bracketleft" format="1">
  <advance width="755"/>
  <unicode hex="005B"/>
  <outline>
    <contour>
      <point x="200" y="-195" type="curve" smooth="yes"/>
      <point x="571" y="-195" type="line" smooth="yes"/>
      <point x="586" y="-195"/>
      <point x="597" y="-163"/>
      <point x="597" y="-120" type="curve" smooth="yes"/>
      <point x="597" y="97" type="line" smooth="yes"/>
      <point x="597" y="140"/>
      <point x="586" y="172"/>
      <point x="571" y="172" type="curve" smooth="yes"/>
      <point x="443" y="172" type="line" smooth="yes"/>
      <point x="436" y="172"/>
      <point x="430" y="189"/>
      <point x="430" y="209" type="curve" smooth="yes"/>
      <point x="430" y="1233" type="line" smooth="yes"/>
      <point x="430" y="1253"/>
      <point x="436" y="1270"/>
      <point x="443" y="1270" type="curve" smooth="yes"/>
      <point x="571" y="1270" type="line" smooth="yes"/>
      <point x="586" y="1270"/>
      <point x="597" y="1302"/>
      <point x="597" y="1345" type="curve" smooth="yes"/>
      <point x="597" y="1562" type="line" smooth="yes"/>
      <point x="597" y="1605"/>
      <point x="586" y="1638"/>
      <point x="571" y="1638" type="curve" smooth="yes"/>
      <point x="200" y="1638" type="line" smooth="yes"/>
      <point x="185" y="1638"/>
      <point x="173" y="1604"/>
      <point x="173" y="1561" type="curve" smooth="yes"/>
      <point x="173" y="-118" type="line" smooth="yes"/>
      <point x="173" y="-161"/>
      <point x="185" y="-195"/>
    </contour>
  </outline>
</glyph>
<glyph name="backslash" format="1">
  <advance width="712"/>
  <unicode hex="005C"/>
  <outline>
    <contour>
      <point x="388" y="-207" type="curve" smooth="yes"/>
      <point x="563" y="-205" type="line" smooth="yes"/>
      <point x="568" y="-205"/>
      <point x="572" y="-187"/>
      <point x="570" y="-170" type="curve" smooth="yes"/>
      <point x="335" y="1612" type="line" smooth="yes"/>
      <point x="333" y="1633"/>
      <point x="326" y="1647"/>
      <point x="319" y="1647" type="curve" smooth="yes"/>
      <point x="145" y="1647" type="line" smooth="yes"/>
      <point x="139" y="1647"/>
      <point x="135" y="1629"/>
      <point x="137" y="1612" type="curve" smooth="yes"/>
      <point x="372" y="-172" type="line" smooth="yes"/>
      <point x="375" y="-193"/>
      <point x="381" y="-207"/>
    </contour>
  </outline>
</glyph>
<glyph name="bracketright" format="1">
  <advance width="755"/>
  <unicode hex="005D"/>
  <outline>
    <contour>
      <point x="186" y="-195" type="curve" smooth="yes"/>
      <point x="556" y="-195" type="line" smooth="yes"/>
      <point x="570" y="-195"/>
      <point x="582" y="-161"/>
      <point x="582" y="-118" type="curve" smooth="yes"/>
      <point x="582" y="1561" type="line" smooth="yes"/>
      <point x="582" y="1604"/>
      <point x="570" y="1638"/>
      <point x="556" y="1638" type="curve" smooth="yes"/>
      <point x="186" y="1638" type="line" smooth="yes"/>
      <point x="170" y="1638"/>
      <point x="159" y="1605"/>
      <point x="159" y="1562" type="curve" smooth="yes"/>
      <point x="159" y="1346" type="line" smooth="yes"/>
      <point x="159" y="1303"/>
      <point x="170" y="1270"/>
      <point x="186" y="1270" type="curve" smooth="yes"/>
      <point x="313" y="1270" type="line" smooth="yes"/>
      <point x="320" y="1270"/>
      <point x="326" y="1254"/>
      <point x="326" y="1234" type="curve" smooth="yes"/>
      <point x="326" y="209" type="line" smooth="yes"/>
      <point x="326" y="189"/>
      <point x="320" y="173"/>
      <point x="313" y="173" type="curve" smooth="yes"/>
      <point x="186" y="173" type="line" smooth="yes"/>
      <point x="170" y="173"/>
      <point x="159" y="141"/>
      <point x="159" y="98" type="curve" smooth="yes"/>
      <point x="159" y="-120" type="line" smooth="yes"/>
      <point x="159" y="-163"/>
      <point x="170" y="-195"/>
    </contour>
  </outline>
</glyph>
<glyph name="a" format="1">
  <advance width="917"/>
  <unicode hex="0061"/>
  <outline>
    <contour>
      <point x="368" y="-41" type="curve" smooth="yes"/>
      <point x="494" y="-41"/>
      <point x="574" y="59"/>
      <point x="614" y="212" type="curve"/>
      <point x="617" y="221"/>
      <point x="619" y="224"/>
      <point x="620" y="224" type="curve" smooth="yes"/>
      <point x="623" y="224"/>
      <point x="625" y="218"/>
      <point x="626" y="208" type="curve" smooth="yes"/>
      <point x="628" y="185"/>
      <point x="644" y="102"/>
      <point x="652" y="59" type="curve" smooth="yes"/>
      <point x="659" y="24"/>
      <point x="674" y="0"/>
      <point x="687" y="0" type="curve" smooth="yes"/>
      <point x="730" y="0" type="line" smooth="yes"/>
      <point x="743" y="0"/>
      <point x="752" y="28"/>
      <point x="752" y="63" type="curve" smooth="yes"/>
      <point x="752" y="631" type="line" smooth="yes"/>
      <point x="752" y="976"/>
      <point x="609" y="1053"/>
      <point x="446" y="1053" type="curve" smooth="yes"/>
      <point x="282" y="1053"/>
      <point x="196" y="989"/>
      <point x="176" y="846" type="curve" smooth="yes"/>
      <point x="174" y="833"/>
      <point x="173" y="816"/>
      <point x="173" y="802" type="curve" smooth="yes"/>
      <point x="173" y="785"/>
      <point x="177" y="766"/>
      <point x="183" y="765" type="curve"/>
      <point x="322" y="729" type="line" smooth="yes"/>
      <point x="326" y="728"/>
      <point x="328" y="727"/>
      <point x="330" y="727" type="curve" smooth="yes"/>
      <point x="337" y="727"/>
      <point x="341" y="733"/>
      <point x="349" y="753" type="curve" smooth="yes"/>
      <point x="375" y="820"/>
      <point x="419" y="844"/>
      <point x="447" y="844" type="curve" smooth="yes"/>
      <point x="519" y="844"/>
      <point x="542" y="776"/>
      <point x="542" y="654" type="curve" smooth="yes"/>
      <point x="542" y="648"/>
      <point x="542" y="646"/>
      <point x="542" y="639" type="curve" smooth="yes"/>
      <point x="542" y="595"/>
      <point x="163" y="648"/>
      <point x="163" y="238" type="curve" smooth="yes"/>
      <point x="163" y="62"/>
      <point x="246" y="-41"/>
    </contour>
    <contour>
      <point x="408" y="181" type="curve" smooth="yes"/>
      <point x="376" y="181"/>
      <point x="358" y="216"/>
      <point x="358" y="272" type="curve" smooth="yes"/>
      <point x="358" y="368"/>
      <point x="429" y="411"/>
      <point x="528" y="450" type="curve"/>
      <point x="530" y="451"/>
      <point x="536" y="452"/>
      <point x="537" y="452" type="curve" smooth="yes"/>
      <point x="546" y="452"/>
      <point x="547" y="432"/>
      <point x="547" y="418" type="curve" smooth="yes"/>
      <point x="547" y="294"/>
      <point x="483" y="181"/>
    </contour>
  </outline>
</glyph>
<glyph name="b" format="1">
  <advance width="939"/>
  <unicode hex="0062"/>
  <outline>
    <contour>
      <point x="525" y="-41" type="curve" smooth="yes"/>
      <point x="653" y="-41"/>
      <point x="781" y="131"/>
      <point x="781" y="498" type="curve" smooth="yes"/>
      <point x="781" y="887"/>
      <point x="655" y="1053"/>
      <point x="539" y="1053" type="curve" smooth="yes"/>
      <point x="477" y="1053"/>
      <point x="417" y="1007"/>
      <point x="379" y="921" type="curve"/>
      <point x="378" y="918"/>
      <point x="377" y="917"/>
      <point x="376" y="917" type="curve" smooth="yes"/>
      <point x="373" y="917"/>
      <point x="370" y="925"/>
      <point x="370" y="935" type="curve" smooth="yes"/>
      <point x="370" y="1348" type="line" smooth="yes"/>
      <point x="370" y="1391"/>
      <point x="358" y="1424"/>
      <point x="344" y="1424" type="curve" smooth="yes"/>
      <point x="199" y="1424" type="line" smooth="yes"/>
      <point x="184" y="1424"/>
      <point x="172" y="1391"/>
      <point x="172" y="1348" type="curve" smooth="yes"/>
      <point x="172" y="67" type="line" smooth="yes"/>
      <point x="172" y="24"/>
      <point x="179" y="0"/>
      <point x="193" y="0" type="curve" smooth="yes"/>
      <point x="231" y="0" type="line" smooth="yes"/>
      <point x="245" y="0"/>
      <point x="252" y="27"/>
      <point x="260" y="69" type="curve" smooth="yes"/>
      <point x="277" y="139"/>
      <point x="286" y="178"/>
      <point x="290" y="201" type="curve"/>
      <point x="292" y="209"/>
      <point x="294" y="213"/>
      <point x="296" y="213" type="curve" smooth="yes"/>
      <point x="299" y="213"/>
      <point x="300" y="210"/>
      <point x="302" y="204" type="curve" smooth="yes"/>
      <point x="349" y="42"/>
      <point x="439" y="-41"/>
    </contour>
    <contour>
      <point x="474" y="241" type="curve" smooth="yes"/>
      <point x="406" y="241"/>
      <point x="370" y="372"/>
      <point x="370" y="513" type="curve" smooth="yes"/>
      <point x="370" y="653"/>
      <point x="406" y="784"/>
      <point x="474" y="784" type="curve" smooth="yes"/>
      <point x="539" y="784"/>
      <point x="575" y="655"/>
      <point x="575" y="513" type="curve" smooth="yes"/>
      <point x="575" y="373"/>
      <point x="540" y="241"/>
    </contour>
  </outline>
</glyph>
<glyph name="d" format="1">
  <advance width="939"/>
  <unicode hex="0064"/>
  <outline>
    <contour>
      <point x="412" y="-41" type="curve" smooth="yes"/>
      <point x="500" y="-41"/>
      <point x="588" y="41"/>
      <point x="634" y="200" type="curve"/>
      <point x="637" y="207"/>
      <point x="639" y="210"/>
      <point x="642" y="211" type="curve" smooth="yes"/>
      <point x="645" y="210"/>
      <point x="648" y="206"/>
      <point x="649" y="197" type="curve"/>
      <point x="649" y="195"/>
      <point x="678" y="67"/>
      <point x="679" y="64" type="curve" smooth="yes"/>
      <point x="687" y="25"/>
      <point x="702" y="0"/>
      <point x="718" y="0" type="curve" smooth="yes"/>
      <point x="740" y="0" type="line" smooth="yes"/>
      <point x="755" y="0"/>
      <point x="767" y="33"/>
      <point x="767" y="76" type="curve" smooth="yes"/>
      <point x="767" y="1348" type="line" smooth="yes"/>
      <point x="767" y="1391"/>
      <point x="755" y="1424"/>
      <point x="740" y="1424" type="curve" smooth="yes"/>
      <point x="595" y="1424" type="line" smooth="yes"/>
      <point x="580" y="1424"/>
      <point x="570" y="1391"/>
      <point x="570" y="1348" type="curve" smooth="yes"/>
      <point x="570" y="936" type="line" smooth="yes"/>
      <point x="570" y="926"/>
      <point x="567" y="917"/>
      <point x="564" y="917" type="curve" smooth="yes"/>
      <point x="562" y="917"/>
      <point x="560" y="918"/>
      <point x="559" y="921" type="curve"/>
      <point x="521" y="1007"/>
      <point x="461" y="1053"/>
      <point x="401" y="1053" type="curve" smooth="yes"/>
      <point x="283" y="1053"/>
      <point x="157" y="887"/>
      <point x="157" y="498" type="curve" smooth="yes"/>
      <point x="157" y="131"/>
      <point x="286" y="-41"/>
    </contour>
    <contour>
      <point x="465" y="241" type="curve" smooth="yes"/>
      <point x="399" y="241"/>
      <point x="364" y="373"/>
      <point x="364" y="513" type="curve" smooth="yes"/>
      <point x="364" y="655"/>
      <point x="399" y="784"/>
      <point x="464" y="784" type="curve" smooth="yes"/>
      <point x="533" y="784"/>
      <point x="570" y="653"/>
      <point x="570" y="513" type="curve" smooth="yes"/>
      <point x="570" y="372"/>
      <point x="533" y="241"/>
    </contour>
  </outline>
</glyph>
<glyph name="e" format="1">
  <advance width="887"/>
  <unicode hex="0065"/>
  <outline>
    <contour>
      <point x="458" y="-41" type="curve" smooth="yes"/>
      <point x="643" y="-41"/>
      <point x="719" y="84"/>
      <point x="719" y="222" type="curve" smooth="yes"/>
      <point x="719" y="255"/>
      <point x="716" y="293"/>
      <point x="700" y="293" type="curve" smooth="yes"/>
      <point x="691" y="293"/>
      <point x="581" y="293"/>
      <point x="571" y="293" type="curve" smooth="yes"/>
      <point x="551" y="293"/>
      <point x="555" y="183"/>
      <point x="469" y="183" type="curve" smooth="yes"/>
      <point x="421" y="183"/>
      <point x="365" y="263"/>
      <point x="365" y="422" type="curve" smooth="yes"/>
      <point x="365" y="438"/>
      <point x="368" y="455"/>
      <point x="374" y="455" type="curve" smooth="yes"/>
      <point x="711" y="455" type="line" smooth="yes"/>
      <point x="720" y="455"/>
      <point x="725" y="470"/>
      <point x="726" y="489" type="curve" smooth="yes"/>
      <point x="727" y="500"/>
      <point x="727" y="513"/>
      <point x="727" y="526" type="curve" smooth="yes"/>
      <point x="726" y="928"/>
      <point x="577" y="1053"/>
      <point x="455" y="1053" type="curve" smooth="yes"/>
      <point x="321" y="1053"/>
      <point x="158" y="958"/>
      <point x="158" y="504" type="curve" smooth="yes"/>
      <point x="158" y="42"/>
      <point x="322" y="-41"/>
    </contour>
    <contour>
      <point x="544" y="614" type="curve" smooth="yes"/>
      <point x="392" y="614" type="line" smooth="yes"/>
      <point x="387" y="614"/>
      <point x="365" y="631"/>
      <point x="365" y="644" type="curve" smooth="yes"/>
      <point x="367" y="729"/>
      <point x="403" y="807"/>
      <point x="447" y="808" type="curve" smooth="yes"/>
      <point x="493" y="823"/>
      <point x="530" y="756"/>
      <point x="537" y="661" type="curve" smooth="yes"/>
      <point x="545" y="649"/>
      <point x="547" y="624"/>
    </contour>
  </outline>
</glyph>
<glyph name="g" format="1">
  <advance width="841"/>
  <unicode hex="0067"/>
  <outline>
    <contour>
      <point x="413" y="-658" type="curve" smooth="yes"/>
      <point x="640" y="-658"/>
      <point x="687" y="-488"/>
      <point x="687" y="-233" type="curve" smooth="yes"/>
      <point x="687" y="-20"/>
      <point x="643" y="184"/>
      <point x="488" y="184" type="curve" smooth="yes"/>
      <point x="387" y="184" type="line" smooth="yes"/>
      <point x="322" y="184"/>
      <point x="287" y="194"/>
      <point x="287" y="256" type="curve" smooth="yes"/>
      <point x="287" y="273"/>
      <point x="290" y="312"/>
      <point x="292" y="328" type="curve"/>
      <point x="296" y="344"/>
      <point x="305" y="357"/>
      <point x="312" y="353" type="curve" smooth="yes"/>
      <point x="341" y="335"/>
      <point x="378" y="324"/>
      <point x="421" y="324" type="curve" smooth="yes"/>
      <point x="595" y="324"/>
      <point x="647" y="518"/>
      <point x="647" y="729" type="curve" smooth="yes"/>
      <point x="647" y="858"/>
      <point x="609" y="967"/>
      <point x="556" y="1031" type="curve" smooth="yes"/>
      <point x="550" y="1038"/>
      <point x="547" y="1059"/>
      <point x="551" y="1076" type="curve" smooth="yes"/>
      <point x="612" y="1363" type="line" smooth="yes"/>
      <point x="618" y="1391"/>
      <point x="612" y="1428"/>
      <point x="601" y="1428" type="curve" smooth="yes"/>
      <point x="523" y="1428" type="line" smooth="yes"/>
      <point x="508" y="1428"/>
      <point x="494" y="1396"/>
      <point x="492" y="1353" type="curve" smooth="yes"/>
      <point x="475" y="1127" type="line" smooth="yes"/>
      <point x="474" y="1108"/>
      <point x="467" y="1094"/>
      <point x="460" y="1096" type="curve"/>
      <point x="444" y="1102"/>
      <point x="428" y="1110"/>
      <point x="407" y="1110" type="curve" smooth="yes"/>
      <point x="230" y="1110"/>
      <point x="165" y="931"/>
      <point x="165" y="729" type="curve" smooth="yes"/>
      <point x="165" y="630"/>
      <point x="186" y="526"/>
      <point x="219" y="449" type="curve"/>
      <point x="222" y="443"/>
      <point x="223" y="437"/>
      <point x="223" y="430" type="curve" smooth="yes"/>
      <point x="223" y="422"/>
      <point x="221" y="414"/>
      <point x="218" y="409" type="curve" smooth="yes"/>
      <point x="189" y="355"/>
      <point x="166" y="257"/>
      <point x="166" y="154" type="curve" smooth="yes"/>
      <point x="166" y="57"/>
      <point x="195" y="-44"/>
      <point x="236" y="-99" type="curve" smooth="yes"/>
      <point x="239" y="-103"/>
      <point x="240" y="-109"/>
      <point x="240" y="-116" type="curve" smooth="yes"/>
      <point x="240" y="-121"/>
      <point x="239" y="-127"/>
      <point x="237" y="-131" type="curve" smooth="yes"/>
      <point x="193" y="-210"/>
      <point x="173" y="-318"/>
      <point x="173" y="-397" type="curve" smooth="yes"/>
      <point x="173" y="-547"/>
      <point x="248" y="-658"/>
    </contour>
    <contour>
      <point x="408" y="-385" type="curve" smooth="yes"/>
      <point x="338" y="-385"/>
      <point x="306" y="-341"/>
      <point x="306" y="-294" type="curve" smooth="yes"/>
      <point x="306" y="-263"/>
      <point x="341" y="-168"/>
      <point x="349" y="-168" type="curve" smooth="yes"/>
      <point x="498" y="-168" type="line" smooth="yes"/>
      <point x="534" y="-168"/>
      <point x="558" y="-225"/>
      <point x="558" y="-273" type="curve" smooth="yes"/>
      <point x="558" y="-328"/>
      <point x="552" y="-385"/>
    </contour>
    <contour>
      <point x="407" y="577" type="curve" smooth="yes"/>
      <point x="352" y="577"/>
      <point x="325" y="646"/>
      <point x="325" y="733" type="curve" smooth="yes"/>
      <point x="325" y="812"/>
      <point x="351" y="882"/>
      <point x="407" y="882" type="curve" smooth="yes"/>
      <point x="462" y="882"/>
      <point x="489" y="806"/>
      <point x="489" y="721" type="curve" smooth="yes"/>
      <point x="489" y="642"/>
      <point x="465" y="577"/>
    </contour>
  </outline>
</glyph>
<glyph name="i" format="1">
  <advance width="542"/>
  <unicode hex="0069"/>
  <outline>
    <contour>
      <point x="198" y="0" type="curve" smooth="yes"/>
      <point x="344" y="0" type="line" smooth="yes"/>
      <point x="358" y="0"/>
      <point x="370" y="33"/>
      <point x="370" y="76" type="curve" smooth="yes"/>
      <point x="370" y="930" type="line" smooth="yes"/>
      <point x="370" y="973"/>
      <point x="358" y="1006"/>
      <point x="344" y="1006" type="curve" smooth="yes"/>
      <point x="198" y="1006" type="line" smooth="yes"/>
      <point x="183" y="1006"/>
      <point x="172" y="973"/>
      <point x="172" y="930" type="curve" smooth="yes"/>
      <point x="172" y="76" type="line" smooth="yes"/>
      <point x="172" y="33"/>
      <point x="183" y="0"/>
    </contour>
    <contour>
      <point x="198" y="1154" type="curve" smooth="yes"/>
      <point x="344" y="1154" type="line" smooth="yes"/>
      <point x="358" y="1154"/>
      <point x="370" y="1187"/>
      <point x="370" y="1230" type="curve" smooth="yes"/>
      <point x="370" y="1450" type="line" smooth="yes"/>
      <point x="370" y="1493"/>
      <point x="358" y="1526"/>
      <point x="344" y="1526" type="curve" smooth="yes"/>
      <point x="198" y="1526" type="line" smooth="yes"/>
      <point x="183" y="1526"/>
      <point x="172" y="1493"/>
      <point x="172" y="1450" type="curve" smooth="yes"/>
      <point x="172" y="1230" type="line" smooth="yes"/>
      <point x="172" y="1187"/>
      <point x="183" y="1154"/>
    </contour>
  </outline>
</glyph>
<glyph name="j" format="1">
  <advance width="636"/>
  <unicode hex="006A"/>
  <outline>
    <contour>
      <point x="268" y="-445" type="curve" smooth="yes"/>
      <point x="361" y="-421"/>
      <point x="454" y="-318"/>
      <point x="454" y="-15" type="curve" smooth="yes"/>
      <point x="461" y="-16"/>
      <point x="464" y="846"/>
      <point x="464" y="865" type="curve" smooth="yes"/>
      <point x="464" y="905"/>
      <point x="453" y="1001"/>
      <point x="439" y="1001" type="curve" smooth="yes"/>
      <point x="439" y="1004"/>
      <point x="295" y="1006"/>
      <point x="294" y="1006" type="curve" smooth="yes"/>
      <point x="280" y="1006"/>
      <point x="267" y="974"/>
      <point x="267" y="934" type="curve" smooth="yes"/>
      <point x="266" y="934"/>
      <point x="266" y="69"/>
      <point x="266" y="66" type="curve" smooth="yes"/>
      <point x="266" y="-39"/>
      <point x="228" y="-116"/>
      <point x="192" y="-116" type="curve" smooth="yes"/>
      <point x="179" y="-129"/>
      <point x="166" y="-136"/>
      <point x="151" y="-131" type="curve" smooth="yes"/>
      <point x="138" y="-127"/>
      <point x="124" y="-155"/>
      <point x="124" y="-193" type="curve" smooth="yes"/>
      <point x="122" y="-240"/>
      <point x="122" y="-291"/>
      <point x="122" y="-341" type="curve" smooth="yes"/>
      <point x="122" y="-382"/>
      <point x="133" y="-422"/>
      <point x="147" y="-428" type="curve" smooth="yes"/>
      <point x="182" y="-444"/>
      <point x="225" y="-457"/>
    </contour>
    <contour>
      <point x="291" y="1154" type="curve" smooth="yes"/>
      <point x="438" y="1154" type="line" smooth="yes"/>
      <point x="452" y="1154"/>
      <point x="463" y="1187"/>
      <point x="463" y="1230" type="curve" smooth="yes"/>
      <point x="463" y="1450" type="line" smooth="yes"/>
      <point x="463" y="1493"/>
      <point x="452" y="1526"/>
      <point x="438" y="1526" type="curve" smooth="yes"/>
      <point x="291" y="1526" type="line" smooth="yes"/>
      <point x="276" y="1526"/>
      <point x="265" y="1493"/>
      <point x="265" y="1450" type="curve" smooth="yes"/>
      <point x="265" y="1230" type="line" smooth="yes"/>
      <point x="265" y="1187"/>
      <point x="276" y="1154"/>
    </contour>
  </outline>
</glyph>
<glyph name="l" format="1">
  <advance width="543"/>
  <unicode hex="006C"/>
  <outline>
    <contour>
      <point x="199" y="0" type="curve" smooth="yes"/>
      <point x="345" y="0" type="line" smooth="yes"/>
      <point x="359" y="0"/>
      <point x="371" y="33"/>
      <point x="371" y="76" type="curve" smooth="yes"/>
      <point x="371" y="1396" type="line" smooth="yes"/>
      <point x="371" y="1439"/>
      <point x="359" y="1472"/>
      <point x="345" y="1472" type="curve" smooth="yes"/>
      <point x="199" y="1472" type="line" smooth="yes"/>
      <point x="184" y="1472"/>
      <point x="172" y="1439"/>
      <point x="172" y="1396" type="curve" smooth="yes"/>
      <point x="172" y="76" type="line" smooth="yes"/>
      <point x="172" y="33"/>
      <point x="184" y="0"/>
    </contour>
  </outline>
</glyph>
<glyph name="r" format="1">
  <advance width="705"/>
  <unicode hex="0072"/>
  <outline>
    <contour>
      <point x="194" y="0" type="curve" smooth="yes"/>
      <point x="340" y="0" type="line" smooth="yes"/>
      <point x="354" y="0"/>
      <point x="366" y="33"/>
      <point x="366" y="76" type="curve"/>
      <point x="366" y="76"/>
      <point x="366" y="434"/>
      <point x="366" y="453" type="curve" smooth="yes"/>
      <point x="366" y="557"/>
      <point x="389" y="730"/>
      <point x="464" y="730" type="curve" smooth="yes"/>
      <point x="478" y="730"/>
      <point x="529" y="730"/>
      <point x="530" y="730" type="curve" smooth="yes"/>
      <point x="543" y="730"/>
      <point x="546" y="763"/>
      <point x="546" y="796" type="curve" smooth="yes"/>
      <point x="546" y="991" type="line" smooth="yes"/>
      <point x="546" y="1026"/>
      <point x="538" y="1053"/>
      <point x="494" y="1053" type="curve" smooth="yes"/>
      <point x="489" y="1053"/>
      <point x="482" y="1053"/>
      <point x="477" y="1053" type="curve" smooth="yes"/>
      <point x="424" y="1051"/>
      <point x="361" y="980"/>
      <point x="312" y="811" type="curve"/>
      <point x="311" y="804"/>
      <point x="309" y="800"/>
      <point x="306" y="800" type="curve" smooth="yes"/>
      <point x="303" y="800"/>
      <point x="300" y="804"/>
      <point x="298" y="812" type="curve" smooth="yes"/>
      <point x="269" y="942" type="line" smooth="yes"/>
      <point x="261" y="982"/>
      <point x="255" y="1006"/>
      <point x="239" y="1006" type="curve" smooth="yes"/>
      <point x="187" y="1006" type="line" smooth="yes"/>
      <point x="173" y="1006"/>
      <point x="168" y="972"/>
      <point x="168" y="929" type="curve" smooth="yes"/>
      <point x="168" y="76" type="line" smooth="yes"/>
      <point x="168" y="33"/>
      <point x="180" y="0"/>
    </contour>
  </outline>
</glyph>
<glyph name="t" format="1">
  <advance width="801"/>
  <unicode hex="0074"/>
  <outline>
    <contour>
      <point x="493" y="-41" type="curve" smooth="yes"/>
      <point x="538" y="-41"/>
      <point x="580" y="-25"/>
      <point x="614" y="-2" type="curve" smooth="yes"/>
      <point x="628" y="7"/>
      <point x="639" y="48"/>
      <point x="639" y="90" type="curve" smooth="yes"/>
      <point x="639" y="243" type="line" smooth="yes"/>
      <point x="639" y="283"/>
      <point x="627" y="312"/>
      <point x="614" y="301" type="curve" smooth="yes"/>
      <point x="590" y="284"/>
      <point x="560" y="269"/>
      <point x="531" y="269" type="curve" smooth="yes"/>
      <point x="485" y="269"/>
      <point x="444" y="308"/>
      <point x="444" y="446" type="curve" smooth="yes"/>
      <point x="444" y="756" type="line" smooth="yes"/>
      <point x="444" y="776"/>
      <point x="450" y="792"/>
      <point x="457" y="792" type="curve" smooth="yes"/>
      <point x="584" y="792" type="line" smooth="yes"/>
      <point x="598" y="792"/>
      <point x="610" y="825"/>
      <point x="610" y="868" type="curve" smooth="yes"/>
      <point x="610" y="930" type="line" smooth="yes"/>
      <point x="610" y="973"/>
      <point x="598" y="1006"/>
      <point x="584" y="1006" type="curve" smooth="yes"/>
      <point x="457" y="1006" type="line" smooth="yes"/>
      <point x="450" y="1006"/>
      <point x="444" y="1022"/>
      <point x="444" y="1042" type="curve" smooth="yes"/>
      <point x="444" y="1399" type="line" smooth="yes"/>
      <point x="444" y="1442"/>
      <point x="433" y="1475"/>
      <point x="418" y="1475" type="curve" smooth="yes"/>
      <point x="273" y="1475" type="line" smooth="yes"/>
      <point x="258" y="1475"/>
      <point x="248" y="1442"/>
      <point x="246" y="1399" type="curve" smooth="yes"/>
      <point x="236" y="1042" type="line"/>
      <point x="236" y="1022"/>
      <point x="231" y="1006"/>
      <point x="224" y="1006" type="curve" smooth="yes"/>
      <point x="181" y="1006" type="line" smooth="yes"/>
      <point x="167" y="1006"/>
      <point x="155" y="973"/>
      <point x="155" y="930" type="curve" smooth="yes"/>
      <point x="155" y="868" type="line" smooth="yes"/>
      <point x="155" y="825"/>
      <point x="167" y="792"/>
      <point x="181" y="792" type="curve" smooth="yes"/>
      <point x="224" y="792" type="line" smooth="yes"/>
      <point x="231" y="792"/>
      <point x="236" y="776"/>
      <point x="236" y="756" type="curve" smooth="yes"/>
      <point x="236" y="491" type="line" smooth="yes"/>
      <point x="236" y="83"/>
      <point x="369" y="-41"/>
    </contour>
  </outline>
</glyph>
<glyph name="u" format="1">
  <advance width="941"/>
  <unicode hex="0075"/>
  <outline>
    <contour>
      <point x="417" y="-41" type="curve" smooth="yes"/>
      <point x="500" y="-41"/>
      <point x="582" y="39"/>
      <point x="627" y="200" type="curve" smooth="yes"/>
      <point x="629" y="207"/>
      <point x="631" y="211"/>
      <point x="634" y="211" type="curve" smooth="yes"/>
      <point x="636" y="211"/>
      <point x="640" y="206"/>
      <point x="642" y="198" type="curve" smooth="yes"/>
      <point x="671" y="64" type="line" smooth="yes"/>
      <point x="679" y="24"/>
      <point x="695" y="0"/>
      <point x="711" y="0" type="curve" smooth="yes"/>
      <point x="746" y="0" type="line" smooth="yes"/>
      <point x="761" y="0"/>
      <point x="772" y="34"/>
      <point x="772" y="77" type="curve" smooth="yes"/>
      <point x="772" y="941" type="line" smooth="yes"/>
      <point x="772" y="984"/>
      <point x="760" y="1017"/>
      <point x="745" y="1017" type="curve" smooth="yes"/>
      <point x="599" y="1017" type="line" smooth="yes"/>
      <point x="584" y="1017"/>
      <point x="572" y="984"/>
      <point x="572" y="941" type="curve" smooth="yes"/>
      <point x="572" y="508" type="line" smooth="yes"/>
      <point x="572" y="375"/>
      <point x="536" y="242"/>
      <point x="469" y="242" type="curve" smooth="yes"/>
      <point x="405" y="242"/>
      <point x="371" y="370"/>
      <point x="371" y="508" type="curve" smooth="yes"/>
      <point x="371" y="941" type="line" smooth="yes"/>
      <point x="371" y="984"/>
      <point x="359" y="1017"/>
      <point x="345" y="1017" type="curve" smooth="yes"/>
      <point x="191" y="1017" type="line" smooth="yes"/>
      <point x="175" y="1017"/>
      <point x="164" y="984"/>
      <point x="164" y="941" type="curve" smooth="yes"/>
      <point x="164" y="497" type="line" smooth="yes"/>
      <point x="164" y="132"/>
      <point x="289" y="-41"/>
    </contour>
  </outline>
</glyph>
<glyph name="v" format="1">
  <advance width="906"/>
  <unicode hex="0076"/>
  <outline>
    <contour>
      <point x="354" y="0" type="curve" smooth="yes"/>
      <point x="542" y="0" type="line" smooth="yes"/>
      <point x="558" y="0"/>
      <point x="573" y="27"/>
      <point x="580" y="67" type="curve" smooth="yes"/>
      <point x="746" y="939" type="line" smooth="yes"/>
      <point x="747" y="947"/>
      <point x="749" y="955"/>
      <point x="749" y="962" type="curve" smooth="yes"/>
      <point x="749" y="985"/>
      <point x="742" y="1006"/>
      <point x="733" y="1006" type="curve" smooth="yes"/>
      <point x="591" y="1006" type="line" smooth="yes"/>
      <point x="575" y="1006"/>
      <point x="559" y="978"/>
      <point x="553" y="937" type="curve" smooth="yes"/>
      <point x="468" y="413" type="line" smooth="yes"/>
      <point x="467" y="406"/>
      <point x="465" y="403"/>
      <point x="463" y="403" type="curve" smooth="yes"/>
      <point x="461" y="403"/>
      <point x="459" y="406"/>
      <point x="457" y="413" type="curve"/>
      <point x="372" y="937" type="line" smooth="yes"/>
      <point x="365" y="978"/>
      <point x="351" y="1006"/>
      <point x="335" y="1006" type="curve" smooth="yes"/>
      <point x="169" y="1006" type="line" smooth="yes"/>
      <point x="159" y="1006"/>
      <point x="153" y="985"/>
      <point x="153" y="961" type="curve" smooth="yes"/>
      <point x="153" y="953"/>
      <point x="153" y="946"/>
      <point x="155" y="938" type="curve"/>
      <point x="316" y="68" type="line" smooth="yes"/>
      <point x="324" y="27"/>
      <point x="339" y="0"/>
    </contour>
  </outline>
</glyph>
<glyph name="w" format="1">
  <advance width="1151"/>
  <unicode hex="0077"/>
  <outline>
    <contour>
      <point x="305" y="0" type="curve" smooth="yes"/>
      <point x="494" y="0" type="line" smooth="yes"/>
      <point x="509" y="0"/>
      <point x="523" y="30"/>
      <point x="527" y="74" type="curve" smooth="yes"/>
      <point x="566" y="452" type="line"/>
      <point x="567" y="457"/>
      <point x="569" y="460"/>
      <point x="570" y="460" type="curve" smooth="yes"/>
      <point x="572" y="460"/>
      <point x="573" y="457"/>
      <point x="573" y="452" type="curve"/>
      <point x="613" y="74" type="line" smooth="yes"/>
      <point x="617" y="31"/>
      <point x="631" y="0"/>
      <point x="646" y="0" type="curve" smooth="yes"/>
      <point x="834" y="0" type="line" smooth="yes"/>
      <point x="850" y="0"/>
      <point x="864" y="29"/>
      <point x="870" y="71" type="curve" smooth="yes"/>
      <point x="992" y="935" type="line" smooth="yes"/>
      <point x="994" y="943"/>
      <point x="994" y="950"/>
      <point x="994" y="957" type="curve" smooth="yes"/>
      <point x="994" y="983"/>
      <point x="987" y="1006"/>
      <point x="976" y="1006" type="curve" smooth="yes"/>
      <point x="839" y="1006" type="line" smooth="yes"/>
      <point x="824" y="1006"/>
      <point x="810" y="976"/>
      <point x="807" y="932" type="curve" smooth="yes"/>
      <point x="757" y="416" type="line"/>
      <point x="757" y="411"/>
      <point x="756" y="408"/>
      <point x="755" y="408" type="curve" smooth="yes"/>
      <point x="753" y="408"/>
      <point x="751" y="410"/>
      <point x="751" y="415" type="curve"/>
      <point x="693" y="933" type="line" smooth="yes"/>
      <point x="689" y="976"/>
      <point x="675" y="1006"/>
      <point x="661" y="1006" type="curve" smooth="yes"/>
      <point x="508" y="1006" type="line" smooth="yes"/>
      <point x="493" y="1006"/>
      <point x="479" y="977"/>
      <point x="474" y="933" type="curve" smooth="yes"/>
      <point x="417" y="415" type="line"/>
      <point x="417" y="410"/>
      <point x="415" y="407"/>
      <point x="413" y="407" type="curve"/>
      <point x="413" y="407"/>
      <point x="411" y="410"/>
      <point x="410" y="416" type="curve"/>
      <point x="365" y="932" type="line" smooth="yes"/>
      <point x="361" y="976"/>
      <point x="348" y="1006"/>
      <point x="332" y="1006" type="curve" smooth="yes"/>
      <point x="173" y="1006" type="line" smooth="yes"/>
      <point x="162" y="1006"/>
      <point x="156" y="982"/>
      <point x="156" y="955" type="curve" smooth="yes"/>
      <point x="156" y="948"/>
      <point x="156" y="941"/>
      <point x="157" y="934" type="curve" smooth="yes"/>
      <point x="270" y="72" type="line" smooth="yes"/>
      <point x="275" y="29"/>
      <point x="290" y="0"/>
    </contour>
  </outline>
</glyph>
<glyph name="x" format="1">
  <advance width="995"/>
  <unicode hex="0078"/>
  <outline>
    <contour>
      <point x="179" y="0" type="curve" smooth="yes"/>
      <point x="362" y="0" type="line" smooth="yes"/>
      <point x="377" y="0"/>
      <point x="396" y="18"/>
      <point x="409" y="47" type="curve" smooth="yes"/>
      <point x="410" y="51"/>
      <point x="466" y="178"/>
      <point x="471" y="188" type="curve"/>
      <point x="475" y="195"/>
      <point x="478" y="198"/>
      <point x="481" y="198" type="curve" smooth="yes"/>
      <point x="484" y="198"/>
      <point x="488" y="194"/>
      <point x="490" y="187" type="curve"/>
      <point x="495" y="177"/>
      <point x="544" y="53"/>
      <point x="545" y="50" type="curve" smooth="yes"/>
      <point x="557" y="20"/>
      <point x="575" y="0"/>
      <point x="591" y="0" type="curve" smooth="yes"/>
      <point x="830" y="0" type="line" smooth="yes"/>
      <point x="836" y="0"/>
      <point x="840" y="13"/>
      <point x="840" y="27" type="curve" smooth="yes"/>
      <point x="840" y="35"/>
      <point x="839" y="43"/>
      <point x="836" y="48" type="curve"/>
      <point x="831" y="60"/>
      <point x="630" y="537"/>
      <point x="626" y="546" type="curve" smooth="yes"/>
      <point x="625" y="551"/>
      <point x="623" y="560"/>
      <point x="623" y="567" type="curve" smooth="yes"/>
      <point x="623" y="576"/>
      <point x="625" y="584"/>
      <point x="627" y="589" type="curve" smooth="yes"/>
      <point x="632" y="601"/>
      <point x="794" y="952"/>
      <point x="798" y="960" type="curve" smooth="yes"/>
      <point x="801" y="966"/>
      <point x="802" y="973"/>
      <point x="802" y="981" type="curve" smooth="yes"/>
      <point x="802" y="993"/>
      <point x="799" y="1006"/>
      <point x="793" y="1006" type="curve" smooth="yes"/>
      <point x="623" y="1006" type="line" smooth="yes"/>
      <point x="607" y="1006"/>
      <point x="589" y="987"/>
      <point x="577" y="958" type="curve" smooth="yes"/>
      <point x="575" y="954"/>
      <point x="528" y="843"/>
      <point x="524" y="832" type="curve"/>
      <point x="521" y="826"/>
      <point x="518" y="824"/>
      <point x="515" y="824" type="curve" smooth="yes"/>
      <point x="512" y="824"/>
      <point x="507" y="827"/>
      <point x="504" y="833" type="curve" smooth="yes"/>
      <point x="500" y="845"/>
      <point x="457" y="952"/>
      <point x="455" y="956" type="curve" smooth="yes"/>
      <point x="443" y="987"/>
      <point x="426" y="1006"/>
      <point x="410" y="1006" type="curve" smooth="yes"/>
      <point x="171" y="1006" type="line" smooth="yes"/>
      <point x="165" y="1006"/>
      <point x="161" y="993"/>
      <point x="161" y="979" type="curve" smooth="yes"/>
      <point x="161" y="971"/>
      <point x="163" y="963"/>
      <point x="165" y="958" type="curve" smooth="yes"/>
      <point x="167" y="953"/>
      <point x="355" y="509"/>
      <point x="361" y="495" type="curve"/>
      <point x="362" y="490"/>
      <point x="364" y="482"/>
      <point x="364" y="474" type="curve" smooth="yes"/>
      <point x="364" y="465"/>
      <point x="362" y="458"/>
      <point x="360" y="452" type="curve"/>
      <point x="355" y="442"/>
      <point x="178" y="56"/>
      <point x="173" y="46" type="curve"/>
      <point x="171" y="40"/>
      <point x="171" y="33"/>
      <point x="171" y="26" type="curve" smooth="yes"/>
      <point x="171" y="13"/>
      <point x="174" y="0"/>
    </contour>
  </outline>
</glyph>
<glyph name="braceright" format="1">
  <advance width="645"/>
  <unicode hex="007D"/>
  <outline>
    <contour>
      <point x="187" y="-123" type="curve" smooth="yes"/>
      <point x="215" y="-123"/>
      <point x="254" y="-123"/>
      <point x="279" y="-123" type="curve" smooth="yes"/>
      <point x="443" y="-123"/>
      <point x="362" y="478"/>
      <point x="462" y="563" type="curve" smooth="yes"/>
      <point x="481" y="579"/>
      <point x="488" y="608"/>
      <point x="488" y="664" type="curve" smooth="yes"/>
      <point x="488" y="756" type="line" smooth="yes"/>
      <point x="488" y="812"/>
      <point x="481" y="841"/>
      <point x="462" y="857" type="curve" smooth="yes"/>
      <point x="362" y="942"/>
      <point x="443" y="1543"/>
      <point x="279" y="1543" type="curve" smooth="yes"/>
      <point x="254" y="1543"/>
      <point x="215" y="1543"/>
      <point x="187" y="1543" type="curve" smooth="yes"/>
      <point x="173" y="1543"/>
      <point x="160" y="1508"/>
      <point x="160" y="1466" type="curve" smooth="yes"/>
      <point x="160" y="1356" type="line" smooth="yes"/>
      <point x="160" y="1304"/>
      <point x="169" y="1273"/>
      <point x="186" y="1262" type="curve" smooth="yes"/>
      <point x="274" y="1206"/>
      <point x="200" y="848"/>
      <point x="282" y="725" type="curve"/>
      <point x="286" y="718"/>
      <point x="286" y="702"/>
      <point x="282" y="695" type="curve"/>
      <point x="200" y="572"/>
      <point x="274" y="214"/>
      <point x="186" y="158" type="curve" smooth="yes"/>
      <point x="169" y="147"/>
      <point x="160" y="116"/>
      <point x="160" y="64" type="curve" smooth="yes"/>
      <point x="160" y="-46" type="line" smooth="yes"/>
      <point x="160" y="-88"/>
      <point x="173" y="-123"/>
    </contour>
  </outline>
</glyph>
<glyph name="acute" format="1">
  <advance width="598"/>
  <unicode hex="00B4"/>
  <outline>
    <contour>
      <point x="355" y="1171" type="curve" smooth="yes"/>
      <point x="367" y="1171"/>
      <point x="385" y="1171"/>
      <point x="403" y="1171" type="curve" smooth="yes"/>
      <point x="416" y="1171"/>
      <point x="419" y="1193"/>
      <point x="422" y="1210" type="curve" smooth="yes"/>
      <point x="485" y="1555" type="line" smooth="yes"/>
      <point x="487" y="1567"/>
      <point x="489" y="1581"/>
      <point x="489" y="1592" type="curve" smooth="yes"/>
      <point x="489" y="1608"/>
      <point x="485" y="1620"/>
      <point x="479" y="1620" type="curve" smooth="yes"/>
      <point x="388" y="1620" type="line" smooth="yes"/>
      <point x="373" y="1620"/>
      <point x="365" y="1608"/>
      <point x="362" y="1565" type="curve" smooth="yes"/>
      <point x="342" y="1238" type="line" smooth="yes"/>
      <point x="341" y="1224"/>
      <point x="340" y="1212"/>
      <point x="340" y="1203" type="curve" smooth="yes"/>
      <point x="340" y="1176"/>
      <point x="345" y="1171"/>
    </contour>
  </outline>
</glyph>
<glyph name="caron" format="1">
  <advance width="324"/>
  <unicode hex="02C7"/>
  <outline>
    <contour>
      <point x="144" y="1217" type="curve" smooth="yes"/>
      <point x="175" y="1217" type="line" smooth="yes"/>
      <point x="193" y="1217"/>
      <point x="211" y="1246"/>
      <point x="224" y="1295" type="curve" smooth="yes"/>
      <point x="284" y="1520" type="line" smooth="yes"/>
      <point x="286" y="1530"/>
      <point x="288" y="1541"/>
      <point x="288" y="1553" type="curve" smooth="yes"/>
      <point x="288" y="1575"/>
      <point x="284" y="1598"/>
      <point x="277" y="1598" type="curve" smooth="yes"/>
      <point x="259" y="1598" type="line" smooth="yes"/>
      <point x="241" y="1598"/>
      <point x="226" y="1575"/>
      <point x="212" y="1541" type="curve" smooth="yes"/>
      <point x="171" y="1447" type="line" smooth="yes"/>
      <point x="168" y="1439"/>
      <point x="164" y="1435"/>
      <point x="160" y="1435" type="curve" smooth="yes"/>
      <point x="156" y="1435"/>
      <point x="152" y="1439"/>
      <point x="147" y="1447" type="curve" smooth="yes"/>
      <point x="107" y="1541" type="line" smooth="yes"/>
      <point x="92" y="1575"/>
      <point x="78" y="1598"/>
      <point x="59" y="1598" type="curve" smooth="yes"/>
      <point x="41" y="1598" type="line" smooth="yes"/>
      <point x="35" y="1598"/>
      <point x="31" y="1575"/>
      <point x="31" y="1553" type="curve" smooth="yes"/>
      <point x="31" y="1541"/>
      <point x="32" y="1530"/>
      <point x="35" y="1520" type="curve" smooth="yes"/>
      <point x="93" y="1295" type="line" smooth="yes"/>
      <point x="107" y="1246"/>
      <point x="127" y="1217"/>
    </contour>
  </outline>
</glyph>
<glyph name="ring" format="1">
  <advance width="588"/>
  <unicode hex="02DA"/>
  <outline>
    <contour>
      <point x="294" y="248" type="curve" smooth="yes"/>
      <point x="265" y="248"/>
      <point x="241" y="297"/>
      <point x="241" y="394" type="curve" smooth="yes"/>
      <point x="241" y="499"/>
      <point x="266" y="540"/>
      <point x="294" y="540" type="curve" smooth="yes"/>
      <point x="320" y="540"/>
      <point x="345" y="499"/>
      <point x="345" y="394" type="curve" smooth="yes"/>
      <point x="345" y="296"/>
      <point x="321" y="248"/>
    </contour>
    <contour>
      <point x="294" y="135" type="curve" smooth="yes"/>
      <point x="335" y="135"/>
      <point x="390" y="205"/>
      <point x="390" y="394" type="curve" smooth="yes"/>
      <point x="390" y="588"/>
      <point x="340" y="654"/>
      <point x="294" y="654" type="curve" smooth="yes"/>
      <point x="248" y="654"/>
      <point x="197" y="588"/>
      <point x="197" y="394" type="curve" smooth="yes"/>
      <point x="197" y="204"/>
      <point x="252" y="135"/>
    </contour>
  </outline>
</glyph>
<glyph name="quoteright" format="1">
  <advance width="457"/>
  <unicode hex="2019"/>
  <outline>
    <contour>
      <point x="189" y="792" type="curve" smooth="yes"/>
      <point x="237" y="815"/>
      <point x="298" y="924"/>
      <point x="298" y="1161" type="curve" smooth="yes"/>
      <point x="298" y="1402" type="line" smooth="yes"/>
      <point x="298" y="1445"/>
      <point x="291" y="1479"/>
      <point x="277" y="1479" type="curve" smooth="yes"/>
      <point x="185" y="1479" type="line" smooth="yes"/>
      <point x="171" y="1479"/>
      <point x="164" y="1446"/>
      <point x="164" y="1403" type="curve" smooth="yes"/>
      <point x="164" y="1200" type="line" smooth="yes"/>
      <point x="164" y="1162"/>
      <point x="172" y="1131"/>
      <point x="185" y="1131" type="curve" smooth="yes"/>
      <point x="211" y="1131" type="line" smooth="yes"/>
      <point x="216" y="1131"/>
      <point x="217" y="1120"/>
      <point x="217" y="1104" type="curve" smooth="yes"/>
      <point x="217" y="1080"/>
      <point x="211" y="1003"/>
      <point x="188" y="960" type="curve" smooth="yes"/>
      <point x="173" y="933"/>
      <point x="164" y="939"/>
      <point x="164" y="885" type="curve" smooth="yes"/>
      <point x="164" y="837" type="line" smooth="yes"/>
      <point x="164" y="801"/>
      <point x="177" y="786"/>
    </contour>
  </outline>
</glyph>
